<?xml version="1.0" encoding="UTF-8"?>
<svg id="Layer_1" data-name="Layer 1" xmlns="http://www.w3.org/2000/svg" viewBox="0 0 120.01 60">
  <defs>
    <style>
      .cls-1 {
        fill: #a7a9ac;
      }

      .cls-2 {
        opacity: .36;
      }

      .cls-3 {
        opacity: .28;
      }

      .cls-4 {
        fill: #d1d3d4;
      }

      .cls-5 {
        fill: #bcbec0;
      }

      .cls-6 {
        opacity: .3;
      }
    </style>
  </defs>
  <g class="cls-6">
    <g>
      <polygon class="cls-5" points="9.23 3.19 0 4.34 0 4.38 9.11 3.24 2.32 6.23 0 5.39 0 5.42 2.32 6.27 2.33 6.27 9.23 3.23 9.26 3.21 9.23 3.19"/>
      <path class="cls-5" d="m12.6,17.57l-.05-.05L2.3,6.25l6.94-3.06v.02l3.37,14.37h0ZM2.35,6.26l10.18,11.19-3.33-14.22-6.86,3.02h0Z"/>
      <path class="cls-5" d="m12.96,22.78l-.4-5.28h.02l9.41-2v.03h0l-9.02,7.26h-.01Zm-.37-5.27l.4,5.19,8.91-7.16-9.31,1.98h0Z"/>
      <path class="cls-5" d="m23.16,32l-.03-.03-10.19-9.22h.02l8.99-7.24h.03s1.18,16.49,1.18,16.49Zm-10.17-9.25l10.12,9.16-1.18-16.36-8.95,7.2h0Z"/>
      <path class="cls-5" d="m29.93,39.71l-.04-.04-6.79-7.73h.03l5.9-.61h.01v.02l.88,8.37h.01Zm-6.75-7.76l6.71,7.64-.86-8.24-5.84.6h0Z"/>
      <path class="cls-5" d="m34.35,45.05l-4.46-5.39h0l-.87-8.32-.02-.05.05.04h0l5.32,13.7-.03.02h0Zm-4.42-5.4l4.38,5.3-5.24-13.48.86,8.18Z"/>
      <path class="cls-5" d="m38.96,50.34l-4.62-5.3h.02l12.4-4.5.02.03s-7.82,9.77-7.82,9.77Zm-4.56-5.29l4.56,5.23,7.76-9.69s-12.32,4.46-12.32,4.46Z"/>
      <polygon class="cls-5" points="0 5.39 0 5.42 2.3 6.26 0 12.23 0 12.33 2.34 6.26 2.35 6.24 0 5.39"/>
      <polygon class="cls-5" points="12.58 17.53 12.62 17.52 12.57 17.49 12.57 17.49 0 20.86 0 20.9 11.8 17.74 2.09 20.8 0 21.18 0 21.21 2.1 20.83 12.57 17.53 12.57 17.52 12.57 17.52 12.58 17.53"/>
      <polygon class="cls-5" points="2.34 6.24 2.32 6.22 0 12.23 0 12.33 2.33 6.28 12.54 17.5 0 20.86 0 20.9 12.58 17.53 12.6 17.52 2.34 6.24"/>
      <path class="cls-5" d="m11.18,32.83l-.03-.04L2.06,20.81h.02l10.49-3.31h.02v.02l-1.41,15.32h0ZM2.12,20.83l9.03,11.91,1.4-15.2s-10.43,3.29-10.43,3.29Z"/>
      <path class="cls-5" d="m11.18,32.79h-.03l1.4-15.28h.03l.4,5.24h0l-1.81,10.04h.01Zm1.39-15.07l-1.35,14.66,1.73-9.64-.38-5.03h0Z"/>
      <path class="cls-5" d="m15.1,42.55v-.03l-3.96-9.75h.02l12-.84v.03h0s-8.06,10.59-8.06,10.59Zm-3.91-9.74l3.92,9.67,8-10.5-11.92.83Z"/>
      <path class="cls-5" d="m11.15,32.8v-.02l1.82-10.07.02.02,10.2,9.23h-.04s-12,.84-12,.84Zm1.84-10.02l-1.8,9.99,11.91-.83-10.12-9.16h.01Z"/>
      <path class="cls-5" d="m15.06,42.54l.03-.04,8.04-10.56h.03l-1.96,8.6h0s-6.14,2-6.14,2Zm8.05-10.52l-7.96,10.45,6.02-1.96,1.93-8.49h.01Z"/>
      <path class="cls-5" d="m21.17,40.55v-.02l1.97-8.61.02.03,6.79,7.73h-.03l-8.74.88h-.01Zm1.99-8.57l-1.94,8.52,8.66-.87-6.72-7.66h0Z"/>
      <path class="cls-5" d="m25.41,49.86v-.02l-4.25-9.34h.04l13.18,4.52.02.02h-.02l-8.96,4.82h-.01Zm-4.19-9.3l4.2,9.25,8.89-4.77-13.1-4.48h.01Z"/>
      <path class="cls-5" d="m34.42,45.08l-13.23-4.53v-.03l8.73-.88h0l4.49,5.44h.01Zm-13.15-4.54l13.04,4.46-4.41-5.33s-8.63.87-8.63.87Z"/>
      <path class="cls-5" d="m33.4,58.24l-.03-.03-7.98-8.37h.02l8.97-4.82v.03l-.99,13.19h0Zm-7.95-8.39l7.92,8.31.98-13.08s-8.9,4.77-8.9,4.77Z"/>
      <path class="cls-5" d="m33.36,58.26v-.06l.99-13.2.03.03,4.6,5.28h0l-5.61,7.95h0Zm1.02-13.17l-.97,13.05,5.53-7.82-4.56-5.22h0Z"/>
      <polygon class="cls-5" points="0 21.18 0 21.21 2.03 20.84 0 22.55 0 22.59 2.1 20.83 2.15 20.79 0 21.18"/>
      <polygon class="cls-5" points="11.17 32.79 11.17 32.77 0 31.05 0 31.08 11.11 32.79 .62 38.27 0 37.69 0 37.74 .61 38.3 .61 38.31 11.17 32.8 11.17 32.79"/>
      <polygon class="cls-5" points="2.1 20.81 2.09 20.79 0 22.55 0 22.59 2.09 20.84 11.13 32.76 0 31.05 0 31.08 11.16 32.8 11.21 32.81 2.1 20.81"/>
      <path class="cls-5" d="m3.38,43.25v-.02l-2.79-4.94h.02l10.55-5.51h.04l-.02.03-7.8,10.45h0Zm-2.74-4.96l2.75,4.89,7.72-10.35S.64,38.3.64,38.3Z"/>
      <path class="cls-5" d="m3.35,43.24l.02-.03,7.8-10.46v.03l3.96,9.75s-11.78.71-11.78.71Zm7.81-10.42l-7.74,10.38,11.66-.7-3.92-9.67h0Z"/>
      <path class="cls-5" d="m15.16,47.21l-11.78-3.97v-.03l17.82-2.69v.02h0l-6.04,6.66h0Zm-11.7-3.97l11.69,3.94,5.99-6.61-17.69,2.67h.01Z"/>
      <path class="cls-5" d="m3.39,43.24v-.04l17.8-2.69v.03l-6.08,1.98-11.72.71h0Zm17.6-2.64l-17.21,2.6,11.33-.68,5.88-1.91h0Z"/>
      <path class="cls-5" d="m22.7,57.61l-.04-.05-7.53-10.37h0l6.06-6.7v.04l1.5,17.08h.01Zm-7.52-10.42l7.48,10.3-1.48-16.91-6,6.62h0Z"/>
      <path class="cls-5" d="m22.7,57.55h-.03l-1.49-17.02h.03l4.23,9.3h0l-2.74,7.71h0Zm-1.48-16.91l1.47,16.83,2.71-7.63-4.18-9.21h0Z"/>
      <polygon class="cls-5" points="22.66 60 22.7 57.57 33.33 58.21 30.44 60 30.5 60 33.39 58.21 33.4 58.21 33.4 58.18 22.68 57.53 22.66 57.53 22.62 60 22.66 60"/>
      <path class="cls-5" d="m33.43,58.22l-10.77-.65v-.02l2.76-7.73.02.02,7.99,8.39h0Zm-10.72-.7l10.63.64-7.91-8.3s-2.72,7.66-2.72,7.66Z"/>
      <polygon class="cls-5" points="0 37.69 0 37.74 .6 38.29 0 39.84 0 39.94 .63 38.3 .64 38.29 0 37.69"/>
      <polygon class="cls-5" points="0 43.65 0 43.69 3.36 43.24 1.54 55.48 0 49.65 0 49.78 1.53 55.57 1.57 55.57 3.4 43.22 3.4 43.2 0 43.65"/>
      <polygon class="cls-5" points="0 39.94 .62 38.33 3.36 43.21 0 43.65 0 43.69 3.41 43.23 .63 38.28 .61 38.25 0 39.84 0 39.94"/>
      <path class="cls-5" d="m5.92,59.17l-4.39-3.6h0l1.84-12.35h.03l2.51,15.95h0Zm-4.35-3.61l4.3,3.52-2.48-15.75-1.82,12.22h0Z"/>
      <path class="cls-5" d="m5.88,59.17v-.04l-2.52-15.93h.03l11.8,3.99-.02.02-9.29,11.97h0Zm-2.47-15.93l2.5,15.84,9.23-11.88-11.72-3.95h0Z"/>
      <polygon class="cls-5" points="7.68 60 5.95 59.14 22.65 57.57 21.15 60 21.19 60 22.7 57.56 22.7 57.55 22.69 57.53 5.89 59.11 5.83 59.11 7.61 60 7.68 60"/>
      <path class="cls-5" d="m5.85,59.15l.02-.03,9.28-11.95v.02l7.55,10.38-16.86,1.58h0Zm9.3-11.93l-9.23,11.88,16.72-1.57-7.49-10.32h0Z"/>
      <polygon class="cls-5" points="21.19 60 22.63 57.67 21.97 60 22 60 22.7 57.55 22.67 57.54 22.67 57.54 21.15 60 21.19 60"/>
      <polygon class="cls-5" points="22 60 22.66 57.68 22.62 60 22.66 60 22.7 57.55 22.66 57.54 21.97 60 22 60"/>
      <polygon class="cls-5" points="0 49.65 0 49.78 1.53 55.55 0 55.83 0 55.87 1.55 55.58 1.57 55.58 0 49.65"/>
      <polygon class="cls-5" points="3.01 60 3.13 60 5.95 59.12 0 57.48 0 57.52 5.83 59.12 3.01 60"/>
      <polygon class="cls-5" points="1.56 55.55 1.55 55.55 0 55.83 0 55.87 1.54 55.58 5.82 59.08 0 57.48 0 57.52 5.89 59.14 5.9 59.11 1.56 55.55"/>
      <polygon class="cls-5" points="3.13 60 5.86 59.15 5.6 60 5.63 60 5.91 59.13 5.9 59.13 5.89 59.11 3.01 60 3.13 60"/>
      <polygon class="cls-5" points="5.63 60 5.9 59.15 7.61 60 7.68 60 5.88 59.1 5.6 60 5.63 60"/>
      <g>
        <path class="cls-5" d="m9.51,3.21c0,.16-.13.29-.28.29s-.28-.13-.28-.29.13-.29.28-.29.28.13.28.29Z"/>
        <path class="cls-5" d="m2.6,6.25c0,.15-.12.28-.27.28s-.28-.12-.28-.28.12-.28.28-.28.27.12.27.28Z"/>
        <path class="cls-5" d="m9.78,3.21c0,.31-.25.56-.56.56s-.56-.25-.56-.56.25-.56.56-.56.56.25.56.56Z"/>
        <path class="cls-5" d="m9.45,3.21c0,.12-.1.23-.23.23s-.23-.1-.23-.23.1-.23.23-.23.23.1.23.23Z"/>
        <path class="cls-5" d="m2.65,6.25c0,.18-.14.32-.32.32s-.32-.15-.32-.32.14-.32.32-.32.32.15.32.32Z"/>
        <path class="cls-5" d="m12.86,17.51c0,.16-.13.29-.29.29s-.29-.13-.29-.29.13-.29.29-.29.29.13.29.29Z"/>
        <path class="cls-5" d="m9.47,3.21c0,.13-.11.24-.24.24s-.24-.11-.24-.24.11-.24.24-.24.24.11.24.24Z"/>
        <path class="cls-5" d="m22.15,15.52c0,.1-.08.19-.18.19s-.18-.08-.18-.19.08-.19.18-.19.18.08.18.19Z"/>
        <path class="cls-5" d="m13.23,22.75c0,.14-.11.26-.25.26s-.25-.11-.25-.26.11-.25.25-.25.25.11.25.25Z"/>
        <path class="cls-5" d="m12.74,17.51c0,.09-.08.17-.17.17s-.17-.08-.17-.17.08-.17.17-.17.17.08.17.17Z"/>
        <path class="cls-5" d="m22.12,15.52c0,.09-.07.16-.16.16s-.16-.07-.16-.16.07-.16.16-.16.16.07.16.16Z"/>
        <path class="cls-5" d="m22.28,15.52c0,.18-.14.32-.32.32s-.32-.14-.32-.32.14-.32.32-.32.32.14.32.32Z"/>
        <path class="cls-5" d="m13.25,22.75c0,.16-.13.28-.28.28s-.28-.13-.28-.28.13-.28.28-.28.28.13.28.28Z"/>
        <path class="cls-5" d="m23.33,31.95c0,.1-.08.18-.18.18s-.18-.08-.18-.18.08-.18.18-.18.18.08.18.18Z"/>
        <path class="cls-5" d="m22.2,15.52c0,.13-.11.24-.24.24s-.24-.11-.24-.24.11-.24.24-.24.24.11.24.24Z"/>
        <path class="cls-5" d="m29.24,31.34c0,.11-.09.2-.2.2s-.2-.09-.2-.2.09-.21.2-.21.2.09.2.21Z"/>
        <path class="cls-5" d="m30.12,39.66c0,.11-.09.21-.21.21s-.21-.09-.21-.21.09-.21.21-.21.21.09.21.21Z"/>
        <path class="cls-5" d="m23.35,31.95c0,.11-.09.2-.2.2s-.2-.09-.2-.2.09-.2.2-.2.2.09.2.2Z"/>
        <path class="cls-5" d="m29.25,31.34c0,.12-.1.21-.21.21s-.21-.1-.21-.21.1-.21.21-.21.21.1.21.21Z"/>
        <path class="cls-5" d="m29.21,31.34c0,.09-.08.17-.17.17s-.17-.08-.17-.17.08-.17.17-.17.17.08.17.17Z"/>
        <path class="cls-5" d="m30.24,39.66c0,.18-.15.33-.33.33s-.33-.15-.33-.33.15-.33.33-.33.33.15.33.33Z"/>
        <path class="cls-5" d="m34.66,45.04c0,.16-.13.3-.3.3s-.3-.13-.3-.3.13-.3.3-.3.3.13.3.3Z"/>
        <path class="cls-5" d="m29.36,31.34c0,.18-.14.32-.32.32s-.32-.14-.32-.32.14-.32.32-.32.32.14.32.32Z"/>
        <path class="cls-5" d="m47.02,40.55c0,.14-.11.25-.25.25s-.25-.11-.25-.25.11-.25.25-.25.25.11.25.25Z"/>
        <path class="cls-5" d="m39.14,50.31c0,.1-.08.18-.18.18s-.18-.08-.18-.18.08-.18.18-.18.18.08.18.18Z"/>
        <path class="cls-5" d="m34.59,45.04c0,.12-.1.22-.22.22s-.22-.1-.22-.22.1-.22.22-.22.22.1.22.22Z"/>
        <path class="cls-5" d="m47.17,40.55c0,.22-.18.41-.41.41s-.41-.18-.41-.41.18-.41.41-.41.41.18.41.41Z"/>
        <path class="cls-5" d="m2.46,6.25c0,.07-.06.13-.13.13s-.13-.06-.13-.13.06-.13.13-.13.13.06.13.13Z"/>
        <path class="cls-5" d="m2.54,6.25c0,.12-.1.21-.21.21s-.21-.1-.21-.21.1-.21.21-.21.21.1.21.21Z"/>
        <path class="cls-5" d="m12.84,17.51c0,.15-.12.27-.27.27s-.27-.12-.27-.27.12-.27.27-.27.27.12.27.27Z"/>
        <path class="cls-5" d="m2.37,20.82c0,.16-.13.28-.28.28s-.28-.13-.28-.28.13-.28.28-.28.28.13.28.28Z"/>
        <path class="cls-5" d="m12.84,17.51c0,.15-.12.27-.27.27s-.27-.12-.27-.27.12-.27.27-.27.27.12.27.27Z"/>
        <path class="cls-5" d="m2.54,6.25c0,.12-.09.21-.21.21s-.21-.09-.21-.21.09-.21.21-.21.21.09.21.21Z"/>
        <path class="cls-5" d="m2.68,6.25c0,.19-.16.35-.35.35s-.35-.16-.35-.35.16-.35.35-.35.35.16.35.35Z"/>
        <path class="cls-5" d="m12.92,17.51c0,.19-.15.35-.35.35s-.35-.16-.35-.35.15-.35.35-.35.35.15.35.35Z"/>
        <path class="cls-5" d="m12.89,17.51c0,.18-.14.32-.32.32s-.32-.14-.32-.32.14-.32.32-.32.32.14.32.32Z"/>
        <path class="cls-5" d="m2.4,20.82c0,.17-.14.31-.31.31s-.31-.14-.31-.31.14-.31.31-.31.31.14.31.31Z"/>
        <path class="cls-5" d="m11.32,32.79c0,.09-.07.16-.16.16s-.16-.07-.16-.16.07-.16.16-.16.16.07.16.16Z"/>
        <path class="cls-5" d="m12.89,17.51c0,.17-.14.32-.32.32s-.32-.14-.32-.32.14-.32.32-.32.32.14.32.32Z"/>
        <path class="cls-5" d="m13.15,22.75c0,.1-.08.17-.17.17s-.17-.08-.17-.17.08-.17.17-.17.17.08.17.17Z"/>
        <path class="cls-5" d="m13.18,22.75c0,.12-.09.21-.21.21s-.21-.09-.21-.21.09-.21.21-.21.21.09.21.21Z"/>
        <path class="cls-5" d="m11.7,32.79c0,.3-.24.54-.54.54s-.54-.24-.54-.54.24-.54.54-.54.54.24.54.54Z"/>
        <path class="cls-5" d="m12.81,17.51c0,.13-.11.24-.24.24s-.24-.11-.24-.24.11-.24.24-.24.24.11.24.24Z"/>
        <path class="cls-5" d="m23.44,31.95c0,.16-.13.29-.29.29s-.29-.13-.29-.29.13-.29.29-.29.29.13.29.29Z"/>
        <path class="cls-5" d="m15.4,42.51c0,.16-.13.29-.29.29s-.29-.13-.29-.29.13-.3.29-.3.29.13.29.3Z"/>
        <path class="cls-5" d="m11.37,32.79c0,.11-.09.2-.2.2s-.2-.09-.2-.2.09-.2.2-.2.2.09.2.2Z"/>
        <path class="cls-5" d="m23.42,31.95c0,.15-.12.28-.28.28s-.27-.12-.27-.28.12-.28.27-.28.28.12.28.28Z"/>
        <path class="cls-5" d="m13.28,22.75c0,.17-.14.31-.31.31s-.31-.14-.31-.31.14-.31.31-.31.31.14.31.31Z"/>
        <path class="cls-5" d="m13.18,22.75c0,.12-.09.21-.21.21s-.21-.09-.21-.21.09-.21.21-.21.21.09.21.21Z"/>
        <path class="cls-5" d="m11.37,32.79c0,.11-.09.2-.2.2s-.2-.09-.2-.2.09-.2.2-.2.2.09.2.2Z"/>
        <path class="cls-5" d="m23.4,31.95c0,.14-.11.25-.25.25s-.25-.11-.25-.25.11-.25.25-.25.25.11.25.25Z"/>
        <path class="cls-5" d="m23.62,31.95c0,.26-.21.48-.48.48s-.48-.21-.48-.48.21-.48.48-.48.48.21.48.48Z"/>
        <path class="cls-5" d="m15.46,42.51c0,.2-.16.36-.36.36s-.36-.16-.36-.36.16-.36.36-.36.36.16.36.36Z"/>
        <circle class="cls-5" cx="21.19" cy="40.53" r=".32"/>
        <path class="cls-5" d="m23.49,31.95c0,.19-.15.34-.34.34s-.34-.15-.34-.34.15-.34.34-.34.34.15.34.34Z"/>
        <path class="cls-5" d="m30.21,39.66c0,.17-.14.3-.3.3s-.3-.14-.3-.3.14-.3.3-.3.3.14.3.3Z"/>
        <path class="cls-5" d="m30.39,39.66c0,.26-.21.48-.48.48s-.48-.21-.48-.48.21-.48.48-.48.48.21.48.48Z"/>
        <path class="cls-5" d="m21.4,40.53c0,.12-.09.21-.21.21s-.21-.09-.21-.21.09-.21.21-.21.21.09.21.21Z"/>
        <path class="cls-5" d="m23.46,31.95c0,.17-.14.32-.32.32s-.31-.14-.31-.32.14-.32.31-.32.32.14.32.32Z"/>
        <path class="cls-5" d="m34.84,45.04c0,.26-.21.47-.47.47s-.47-.21-.47-.47.21-.47.47-.47.47.21.47.47Z"/>
        <path class="cls-5" d="m25.62,49.84c0,.11-.09.2-.2.2s-.2-.09-.2-.2.09-.2.2-.2.2.09.2.2Z"/>
        <path class="cls-5" d="m21.65,40.53c0,.25-.2.46-.46.46s-.46-.21-.46-.46.2-.46.46-.46.46.21.46.46Z"/>
        <path class="cls-5" d="m34.69,45.04c0,.18-.15.33-.33.33s-.33-.15-.33-.33.15-.33.33-.33.33.15.33.33Z"/>
        <path class="cls-5" d="m30.14,39.66c0,.12-.1.23-.23.23s-.23-.1-.23-.23.1-.23.23-.23.23.1.23.23Z"/>
        <path class="cls-5" d="m30.2,39.66c0,.16-.13.29-.28.29s-.28-.13-.28-.29.13-.29.28-.29.28.13.28.29Z"/>
        <path class="cls-5" d="m21.37,40.53c0,.1-.08.17-.17.17s-.17-.08-.17-.17.08-.17.17-.17.17.08.17.17Z"/>
        <path class="cls-5" d="m34.63,45.04c0,.15-.12.27-.27.27s-.27-.12-.27-.27.12-.27.27-.27.27.12.27.27Z"/>
        <path class="cls-5" d="m34.62,45.04c0,.14-.11.26-.26.26s-.26-.12-.26-.26.11-.26.26-.26.26.12.26.26Z"/>
        <path class="cls-5" d="m25.82,49.84c0,.22-.18.4-.4.4s-.4-.18-.4-.4.18-.4.4-.4.4.18.4.4Z"/>
        <path class="cls-5" d="m33.62,58.2c0,.13-.1.24-.23.24s-.23-.11-.23-.24.1-.24.23-.24.23.11.23.24Z"/>
        <path class="cls-5" d="m34.6,45.04c0,.13-.11.24-.24.24s-.24-.11-.24-.24.11-.24.24-.24.24.11.24.24Z"/>
        <path class="cls-5" d="m39.13,50.31c0,.1-.08.17-.17.17s-.17-.08-.17-.17.08-.17.17-.17.17.08.17.17Z"/>
        <path class="cls-5" d="m39.26,50.31c0,.17-.14.3-.3.3s-.3-.14-.3-.3.14-.3.3-.3.3.14.3.3Z"/>
        <path class="cls-5" d="m33.79,58.2c0,.23-.18.41-.41.41s-.41-.18-.41-.41.18-.41.41-.41.41.18.41.41Z"/>
        <path class="cls-5" d="m34.56,45.04c0,.11-.09.19-.19.19s-.19-.09-.19-.19.09-.2.19-.2.19.09.19.2Z"/>
        <path class="cls-5" d="m2.41,20.82c0,.18-.14.32-.32.32s-.32-.14-.32-.32.14-.32.32-.32.32.14.32.32Z"/>
        <path class="cls-5" d="m2.55,20.82c0,.26-.21.46-.46.46s-.46-.21-.46-.46.21-.46.46-.46.46.21.46.46Z"/>
        <path class="cls-5" d="m11.38,32.79c0,.12-.1.22-.22.22s-.22-.1-.22-.22.1-.22.22-.22.22.1.22.22Z"/>
        <path class="cls-5" d="m.89,38.29c0,.15-.12.28-.28.28s-.28-.12-.28-.28.12-.28.28-.28.28.12.28.28Z"/>
        <path class="cls-5" d="m11.57,32.79c0,.23-.18.41-.41.41s-.41-.18-.41-.41.18-.41.41-.41.41.18.41.41Z"/>
        <path class="cls-5" d="m2.25,20.82c0,.09-.07.16-.16.16s-.16-.07-.16-.16.07-.16.16-.16.16.07.16.16Z"/>
        <path class="cls-5" d="m2.42,20.82c0,.18-.15.33-.33.33s-.33-.15-.33-.33.15-.33.33-.33.33.15.33.33Z"/>
        <path class="cls-5" d="m11.51,32.79c0,.19-.15.34-.34.34s-.34-.15-.34-.34.15-.34.34-.34.34.15.34.34Z"/>
        <path class="cls-5" d="m11.43,32.79c0,.15-.12.27-.26.27s-.27-.12-.27-.27.12-.27.27-.27.26.12.26.27Z"/>
        <path class="cls-5" d="m.97,38.29c0,.2-.16.36-.36.36s-.36-.16-.36-.36.16-.36.36-.36.36.16.36.36Z"/>
        <path class="cls-5" d="m3.64,43.22c0,.14-.11.26-.26.26s-.26-.12-.26-.26.11-.26.26-.26.26.12.26.26Z"/>
        <path class="cls-5" d="m11.34,32.79c0,.09-.08.17-.17.17s-.17-.08-.17-.17.08-.17.17-.17.17.08.17.17Z"/>
        <path class="cls-5" d="m15.35,42.51c0,.14-.11.25-.25.25s-.25-.11-.25-.25.11-.25.25-.25.25.11.25.25Z"/>
        <path class="cls-5" d="m15.44,42.51c0,.19-.15.34-.34.34s-.34-.15-.34-.34.15-.34.34-.34.34.15.34.34Z"/>
        <path class="cls-5" d="m3.65,43.22c0,.15-.12.27-.27.27s-.27-.12-.27-.27.12-.27.27-.27.27.12.27.27Z"/>
        <path class="cls-5" d="m11.34,32.79c0,.1-.08.18-.18.18s-.17-.08-.17-.18.08-.18.17-.18.18.08.18.18Z"/>
        <path class="cls-5" d="m21.47,40.53c0,.16-.13.28-.28.28s-.28-.13-.28-.28.12-.28.28-.28.28.13.28.28Z"/>
        <path class="cls-5" d="m15.45,47.19c0,.16-.13.29-.29.29s-.29-.13-.29-.29.13-.29.29-.29.29.13.29.29Z"/>
        <path class="cls-5" d="m3.73,43.22c0,.19-.15.35-.35.35s-.35-.16-.35-.35.15-.35.35-.35.35.16.35.35Z"/>
        <path class="cls-5" d="m21.55,40.53c0,.2-.16.36-.36.36s-.36-.16-.36-.36.16-.36.36-.36.36.16.36.36Z"/>
        <path class="cls-5" d="m15.4,42.51c0,.16-.13.29-.29.29s-.29-.13-.29-.29.13-.29.29-.29.29.13.29.29Z"/>
        <path class="cls-5" d="m15.33,42.51c0,.13-.1.23-.23.23s-.23-.1-.23-.23.1-.23.23-.23.23.1.23.23Z"/>
        <path class="cls-5" d="m3.59,43.22c0,.11-.09.21-.21.21s-.21-.09-.21-.21.09-.21.21-.21.21.09.21.21Z"/>
        <path class="cls-5" d="m21.45,40.53c0,.14-.12.26-.26.26s-.26-.12-.26-.26.12-.26.26-.26.26.12.26.26Z"/>
        <path class="cls-5" d="m21.48,40.53c0,.16-.13.29-.29.29s-.29-.13-.29-.29.13-.29.29-.29.29.13.29.29Z"/>
        <path class="cls-5" d="m15.5,47.19c0,.19-.15.35-.35.35s-.35-.16-.35-.35.15-.35.35-.35.35.16.35.35Z"/>
        <path class="cls-5" d="m22.93,57.55c0,.14-.11.25-.25.25s-.25-.11-.25-.25.11-.25.25-.25.25.11.25.25Z"/>
        <path class="cls-5" d="m21.57,40.53c0,.21-.17.38-.38.38s-.38-.17-.38-.38.17-.38.38-.38.38.17.38.38Z"/>
        <path class="cls-5" d="m25.7,49.84c0,.16-.12.28-.28.28s-.28-.12-.28-.28.12-.28.28-.28.28.12.28.28Z"/>
        <path class="cls-5" d="m25.65,49.84c0,.13-.1.23-.23.23s-.23-.1-.23-.23.1-.23.23-.23.23.1.23.23Z"/>
        <path class="cls-5" d="m22.93,57.55c0,.14-.11.25-.25.25s-.25-.11-.25-.25.11-.25.25-.25.25.11.25.25Z"/>
        <circle class="cls-5" cx="21.19" cy="40.53" r=".25"/>
        <path class="cls-5" d="m33.61,58.2c0,.12-.1.23-.23.23s-.23-.1-.23-.23.1-.23.23-.23.23.1.23.23Z"/>
        <path class="cls-5" d="m22.87,57.55c0,.11-.09.19-.19.19s-.19-.09-.19-.19.09-.19.19-.19.19.09.19.19Z"/>
        <path class="cls-5" d="m33.59,58.2c0,.12-.09.21-.21.21s-.21-.09-.21-.21.09-.21.21-.21.21.09.21.21Z"/>
        <path class="cls-5" d="m25.8,49.84c0,.21-.17.38-.38.38s-.38-.17-.38-.38.17-.38.38-.38.38.17.38.38Z"/>
        <path class="cls-5" d="m25.64,49.84c0,.12-.1.22-.22.22s-.22-.1-.22-.22.1-.22.22-.22.22.1.22.22Z"/>
        <path class="cls-5" d="m23.02,57.55c0,.19-.15.34-.34.34s-.34-.15-.34-.34.15-.34.34-.34.34.15.34.34Z"/>
        <path class="cls-5" d="m33.65,58.2c0,.15-.12.26-.26.26s-.26-.12-.26-.26.12-.26.26-.26.26.12.26.26Z"/>
        <path class="cls-5" d="m.85,38.29c0,.13-.11.24-.24.24s-.24-.11-.24-.24.11-.24.24-.24.24.11.24.24Z"/>
        <path class="cls-5" d="m.84,38.29c0,.12-.1.22-.22.22s-.22-.1-.22-.22.1-.22.22-.22.22.1.22.22Z"/>
        <path class="cls-5" d="m3.62,43.22c0,.13-.11.24-.24.24s-.24-.11-.24-.24.11-.24.24-.24.24.11.24.24Z"/>
        <path class="cls-5" d="m1.84,55.56c0,.16-.13.3-.3.3s-.3-.13-.3-.3.13-.3.3-.3.3.13.3.3Z"/>
        <path class="cls-5" d="m3.65,43.22c0,.15-.12.27-.27.27s-.27-.12-.27-.27.12-.27.27-.27.27.12.27.27Z"/>
        <path class="cls-5" d="m.91,38.29c0,.16-.13.29-.29.29s-.29-.13-.29-.29.13-.29.29-.29.29.13.29.29Z"/>
        <path class="cls-5" d="m.93,38.29c0,.17-.14.31-.31.31s-.31-.14-.31-.31.14-.31.31-.31.31.14.31.31Z"/>
        <path class="cls-5" d="m3.62,43.22c0,.13-.1.23-.23.23s-.23-.1-.23-.23.1-.23.23-.23.23.1.23.23Z"/>
        <path class="cls-5" d="m3.71,43.22c0,.18-.14.32-.32.32s-.32-.15-.32-.32.14-.32.32-.32.32.15.32.32Z"/>
        <path class="cls-5" d="m1.82,55.56c0,.15-.12.27-.27.27s-.27-.12-.27-.27.12-.27.27-.27.27.12.27.27Z"/>
        <path class="cls-5" d="m6.09,59.12c0,.11-.09.2-.2.2s-.2-.09-.2-.2.09-.2.2-.2.2.09.2.2Z"/>
        <path class="cls-5" d="m3.66,43.22c0,.15-.12.28-.28.28s-.28-.12-.28-.28.12-.28.28-.28.28.12.28.28Z"/>
        <path class="cls-5" d="m15.53,47.19c0,.21-.17.37-.37.37s-.37-.17-.37-.37.17-.37.37-.37.37.17.37.37Z"/>
        <path class="cls-5" d="m15.5,47.19c0,.19-.15.34-.34.34s-.34-.15-.34-.34.15-.34.34-.34.34.15.34.34Z"/>
        <path class="cls-5" d="m6.15,59.12c0,.14-.12.26-.26.26s-.26-.12-.26-.26.12-.26.26-.26.26.12.26.26Z"/>
        <path class="cls-5" d="m3.71,43.22c0,.18-.15.33-.32.33s-.32-.15-.32-.33.15-.33.32-.33.32.15.32.33Z"/>
        <path class="cls-5" d="m22.94,57.55c0,.14-.11.26-.26.26s-.26-.12-.26-.26.11-.26.26-.26.26.12.26.26Z"/>
        <path class="cls-5" d="m6.09,59.12c0,.11-.09.2-.2.2s-.2-.09-.2-.2.09-.2.2-.2.2.09.2.2Z"/>
        <path class="cls-5" d="m22.92,57.55c0,.13-.11.24-.24.24s-.24-.11-.24-.24.11-.24.24-.24.24.11.24.24Z"/>
        <path class="cls-5" d="m15.45,47.19c0,.16-.13.3-.3.3s-.3-.13-.3-.3.13-.3.3-.3.3.13.3.3Z"/>
        <circle class="cls-5" cx="15.16" cy="47.19" r=".23"/>
        <path class="cls-5" d="m6.2,59.12c0,.17-.14.31-.31.31s-.31-.14-.31-.31.14-.31.31-.31.31.14.31.31Z"/>
        <path class="cls-5" d="m22.94,57.55c0,.14-.11.26-.26.26s-.26-.11-.26-.26.11-.26.26-.26.26.11.26.26Z"/>
        <path class="cls-5" d="m22.87,57.55c0,.11-.09.19-.19.19s-.19-.09-.19-.19.09-.19.19-.19.19.09.19.19Z"/>
        <path class="cls-5" d="m22.93,57.55c0,.14-.11.25-.25.25s-.25-.11-.25-.25.11-.25.25-.25.25.11.25.25Z"/>
        <path class="cls-5" d="m22.92,57.55c0,.13-.11.24-.24.24s-.24-.11-.24-.24.11-.24.24-.24.24.11.24.24Z"/>
        <path class="cls-5" d="m1.81,55.56c0,.14-.12.26-.26.26s-.26-.12-.26-.26.12-.26.26-.26.26.12.26.26Z"/>
        <path class="cls-5" d="m1.81,55.56c0,.14-.12.26-.26.26s-.26-.12-.26-.26.12-.26.26-.26.26.12.26.26Z"/>
        <path class="cls-5" d="m6.14,59.12c0,.14-.11.25-.25.25s-.25-.11-.25-.25.11-.25.25-.25.25.11.25.25Z"/>
        <path class="cls-5" d="m6.07,59.12c0,.1-.08.17-.17.17s-.17-.08-.17-.17.08-.17.17-.17.17.08.17.17Z"/>
        <path class="cls-5" d="m1.89,55.56c0,.19-.15.34-.34.34s-.34-.15-.34-.34.15-.34.34-.34.34.15.34.34Z"/>
        <path class="cls-5" d="m1.73,55.56c0,.1-.08.19-.19.19s-.19-.08-.19-.19.08-.19.19-.19.19.08.19.19Z"/>
        <path class="cls-5" d="m6.19,59.12c0,.17-.13.3-.3.3s-.3-.13-.3-.3.13-.3.3-.3.3.13.3.3Z"/>
        <path class="cls-5" d="m6.28,59.12c0,.21-.17.39-.39.39s-.39-.17-.39-.39.17-.39.39-.39.39.17.39.39Z"/>
        <path class="cls-5" d="m6.02,59.12c0,.07-.06.12-.12.12s-.12-.06-.12-.12.06-.12.12-.12.12.06.12.12Z"/>
        <path class="cls-5" d="m6.15,59.12c0,.14-.12.26-.26.26s-.26-.12-.26-.26.12-.26.26-.26.26.12.26.26Z"/>
      </g>
    </g>
    <g class="cls-2">
      <polygon class="cls-4" points="50.94 60 49.93 56.6 55.63 55.45 54.8 60 54.84 60 55.68 55.41 49.9 56.57 49.89 56.58 50.91 60 50.94 60"/>
      <polygon class="cls-4" points="44.46 60 49.9 56.62 50.91 60 50.94 60 49.92 56.59 49.92 56.56 44.39 60 44.46 60"/>
      <polygon class="cls-4" points="36.24 60 36.1 54.81 41.56 53.56 38.62 60 38.66 60 41.6 53.54 41.62 53.51 36.08 54.78 36.07 54.78 36.2 60 36.24 60"/>
      <polygon class="cls-4" points="38.66 60 41.6 53.56 49.87 56.6 44.39 60 44.46 60 49.95 56.59 41.59 53.52 41.58 53.51 38.62 60 38.66 60"/>
      <polygon class="cls-4" points="29.67 60 28.98 59.48 36.07 54.83 36.2 60 36.24 60 36.1 54.79 36.1 54.76 28.94 59.46 28.92 59.48 29.61 60 29.67 60"/>
      <polygon class="cls-4" points="29.33 60 29.02 59.56 29.61 60 29.67 60 28.96 59.47 28.93 59.49 29.29 60 29.33 60"/>
      <polygon class="cls-4" points="28.4 60 28.92 59.53 28.8 60 28.84 60 28.96 59.48 28.98 59.43 28.35 60 28.4 60"/>
      <polygon class="cls-4" points="28.84 60 28.96 59.52 29.29 60 29.33 60 28.96 59.47 28.94 59.44 28.8 60 28.84 60"/>
      <path class="cls-4" d="m34.17,44.73h.02l8.6-5.41v.03l-1.19,14.22-.03-.03-7.4-8.82h0Zm8.58-5.33l-8.53,5.35,7.35,8.75,1.18-14.1Z"/>
      <path class="cls-4" d="m27.5,51.84l.02-.03,6.67-7.11h0l7.42,8.85h-.04l-14.08-1.72h0Zm6.69-7.07l-6.62,7.05,13.97,1.7s-7.35-8.75-7.35-8.75Z"/>
      <path class="cls-4" d="m27.54,51.84v-.03l14.05,1.71v.03l-5.5,1.26h0l-8.54-2.97h0Zm13.95,1.7l-13.78-1.68,8.38,2.91,5.4-1.24h0Z"/>
      <path class="cls-4" d="m23.14,53.37h.03l4.38-1.57v.02l1.42,7.71-.04-.04-5.79-6.12Zm4.38-1.52l-4.32,1.54,5.71,6.04-1.39-7.57h0Z"/>
      <path class="cls-4" d="m27.52,51.8h.03l8.58,2.99-7.19,4.72v-.03s-1.42-7.68-1.42-7.68Zm8.53,3l-8.48-2.95,1.4,7.6,7.09-4.65h0Z"/>
      <polygon class="cls-4" points="18.24 60 23.18 53.41 28.92 59.47 27.58 60 27.67 60 28.95 59.5 28.96 59.49 28.97 59.47 23.19 53.37 23.17 53.35 18.2 60 18.24 60"/>
      <polygon class="cls-4" points="27.67 60 28.86 59.53 28.35 60 28.4 60 28.96 59.49 28.94 59.46 27.58 60 27.67 60"/>
      <path class="cls-4" d="m22.71,41.92l7.09-4.83v.04l-2.25,14.75-.02-.05-4.82-9.91Zm7.05-4.76l-7,4.77,4.78,9.83,2.22-14.6Z"/>
      <path class="cls-4" d="m27.52,51.88l2.25-14.8,4.45,7.66h0l-6.69,7.14h-.01Zm2.27-14.7l-2.22,14.59,6.61-7.04-4.39-7.55Z"/>
      <path class="cls-4" d="m16.51,48.52l.02-.02,6.2-6.6v.02l4.83,9.91h-.02s-11.02-3.32-11.02-3.32h0Zm6.21-6.55l-6.15,6.54,10.93,3.3-4.78-9.84Z"/>
      <path class="cls-4" d="m16.53,48.52l.02-.03,11.05,3.33-4.42,1.58h0l-6.63-4.88h-.02Zm10.95,3.31l-10.85-3.27,6.54,4.81,4.31-1.53h0Z"/>
      <polygon class="cls-4" points="10.54 60 8.72 57.46 16.52 48.56 14.98 60 15.01 60 16.56 48.51 16.57 48.45 8.68 57.44 8.67 57.45 10.5 60 10.54 60"/>
      <polygon class="cls-4" points="15.01 60 16.56 48.54 23.15 53.38 18.2 60 18.24 60 23.19 53.39 23.2 53.38 16.55 48.49 16.53 48.48 14.98 60 15.01 60"/>
      <polygon class="cls-4" points="5.01 60 8.69 57.48 10.5 60 10.54 60 8.71 57.44 8.7 57.43 4.95 60 5.01 60"/>
      <path class="cls-4" d="m21.9,31.97l12.34-12.89-.02.06-4.44,18.01h-.02l-7.87-5.19h.01Zm12.28-12.76l-12.23,12.76,7.81,5.14,4.42-17.9Z"/>
      <path class="cls-4" d="m15.74,34.59l.05-.02,6.14-2.62h0l7.86,5.17v.03h-.02l-14.04-2.55h0Zm6.19-2.61l-6.07,2.59,13.84,2.52s-7.77-5.11-7.77-5.11Z"/>
      <path class="cls-4" d="m15.75,34.56h.05l14.02,2.56-7.09,4.83h-.01l-6.97-7.4h0Zm13.98,2.59l-13.89-2.53,6.89,7.3,7-4.77Z"/>
      <path class="cls-4" d="m12.08,36.76h.01l3.72-2.21v.03l.75,13.92h-.03l-4.44-11.74h-.01Zm3.7-2.15l-3.65,2.17,4.39,11.62-.74-13.78h0Z"/>
      <path class="cls-4" d="m15.78,34.54l.03.03,6.94,7.36h-.01l-6.21,6.62s-.75-14.01-.75-14.01Zm6.93,7.39l-6.89-7.3.74,13.84,6.15-6.54Z"/>
      <polygon class="cls-4" points="12.12 36.76 12.11 36.74 0 46.04 0 46.09 12.1 36.8 16.52 48.49 0 47.31 0 47.35 16.54 48.52 16.57 48.53 12.12 36.76"/>
      <polygon class="cls-4" points="0 47.31 0 47.35 16.51 48.52 8.69 57.43 0 48.71 0 48.76 8.68 57.47 8.7 57.48 16.56 48.52 16.58 48.49 0 47.31"/>
      <g>
        <polygon class="cls-4" points="1.46 60 0 53.67 0 53.83 1.42 60 1.46 60"/>
        <polygon class="cls-4" points=".63 60 0 59 0 59.07 .59 60 .63 60"/>
      </g>
      <g>
        <polygon class="cls-4" points="4.95 60 5.01 60 8.7 57.47 8.72 57.46 0 48.71 0 48.76 8.67 57.45 4.95 60"/>
        <polygon class="cls-4" points="1.46 60 0 53.67 0 53.83 1.42 60 1.46 60"/>
      </g>
      <polygon class="cls-4" points=".63 60 0 59 0 59.07 .59 60 .63 60"/>
      <path class="cls-4" d="m9.96,30.81l.02-.02,9.91-7.39-.02.06-4.06,11.16h-.02l-5.82-3.8h0Zm9.85-7.32l-9.79,7.31,5.76,3.75s4.03-11.06,4.03-11.06Z"/>
      <path class="cls-4" d="m15.77,34.61v-.04l4.09-11.19,2.09,8.59h-.01l-6.17,2.64Zm4.08-11.11l-4.02,11.04,6.08-2.59-2.06-8.45Z"/>
      <path class="cls-4" d="m3.95,37.09l.04-.04,6-6.27h.01l5.84,3.81h-.04s-11.85,2.5-11.85,2.5Zm6.04-6.27l-5.94,6.21,11.69-2.46-5.75-3.75Z"/>
      <path class="cls-4" d="m4,37.05l11.79-2.48v.03l-3.68,2.19h0l-8.1.3v-.04h0Zm11.69-2.43l-11.49,2.42,7.89-.29s3.6-2.13,3.6-2.13Z"/>
      <polygon class="cls-4" points="0 35.97 0 36.01 3.98 37.08 0 44.41 0 44.48 4.02 37.07 4.03 37.05 0 35.97"/>
      <polygon class="cls-4" points="4.01 37.05 4 37.05 0 44.41 0 44.48 4.02 37.08 12.05 36.79 0 46.04 0 46.09 12.12 36.79 12.16 36.75 4.01 37.05"/>
      <path class="cls-4" d="m12.44,11.98l8.04-.9v.02l-.61,12.41-.03-.05-7.39-11.48h0Zm8-.87l-7.94.89,7.33,11.38.61-12.28h0Z"/>
      <path class="cls-4" d="m5.58,19.1l.02-.02,6.88-7.11v.02l7.4,11.46-.02.02h0l-14.27-4.36h0Zm6.89-7.09l-6.83,7.06,14.17,4.33s-7.34-11.39-7.34-11.39Z"/>
      <path class="cls-4" d="m5.58,19.07h.03l14.28,4.37-.03.02-9.88,7.37v-.02l-4.41-11.74h.01Zm14.24,4.39l-14.18-4.33,4.37,11.66,9.81-7.32h0Z"/>
      <polygon class="cls-4" points="0 24.29 0 24.34 5.59 19.14 3.99 37.01 0 30.52 0 30.58 4.02 37.12 5.63 19.1 5.63 19.05 0 24.29"/>
      <path class="cls-4" d="m3.98,37.11v-.05l1.61-17.97h.03l4.39,11.72h0l-6.02,6.31h-.01Zm1.63-17.95l-1.59,17.85,5.95-6.22-4.35-11.63h0Z"/>
      <polygon class="cls-4" points="0 30.52 0 30.58 3.97 37.04 0 35.88 0 35.91 4 37.08 4.05 37.1 0 30.52"/>
      <path class="cls-4" d="m2.29,15.45h0l3.63-10.09h.03l-.33,13.78-3.34-3.69h0Zm3.63-9.98l-3.59,9.97,3.27,3.61s.32-13.58.32-13.58Z"/>
      <path class="cls-4" d="m5.92,5.32l6.58,6.67-6.91,7.14.33-13.82h0Zm6.53,6.68l-6.5-6.59-.32,13.64s6.82-7.05,6.82-7.05Z"/>
      <polygon class="cls-4" points="2.32 15.43 2.31 15.42 0 17.1 0 17.14 2.3 15.47 5.58 19.08 0 20.63 0 20.67 5.61 19.11 5.63 19.1 2.32 15.43"/>
      <polygon class="cls-4" points="0 20.67 5.54 19.13 0 24.29 0 24.34 5.62 19.11 5.6 19.08 0 20.63 0 20.67"/>
      <polygon class="cls-4" points="8.67 0 5.94 5.31 5.12 0 5.09 0 5.92 5.42 8.71 0 8.67 0"/>
      <polygon class="cls-4" points="0 13.07 0 13.12 2.28 15.44 0 17.1 0 17.14 2.33 15.44 0 13.07"/>
      <g>
        <path class="cls-5" d="m49.88,56.95c-.2-.02-.34-.19-.33-.39.02-.2.19-.34.39-.33.2.02.34.19.33.39-.02.2-.19.34-.39.33Z"/>
        <path class="cls-5" d="m55.63,55.71c-.16,0-.27-.15-.26-.31,0-.16.15-.27.31-.26.16,0,.27.15.26.31,0,.16-.15.27-.31.26Z"/>
        <path class="cls-5" d="m49.9,56.73c-.08,0-.14-.08-.13-.16,0-.08.08-.14.16-.13.08,0,.14.08.13.16,0,.08-.08.14-.16.13Z"/>
        <path class="cls-5" d="m36.07,54.94c-.08,0-.14-.08-.14-.16s.08-.14.16-.14.14.08.14.16-.08.14-.16.14Z"/>
        <path class="cls-5" d="m41.57,53.75c-.12,0-.21-.12-.2-.24,0-.12.12-.21.24-.2.12,0,.21.12.2.24s-.12.21-.24.2Z"/>
        <path class="cls-5" d="m49.89,56.82c-.13,0-.22-.12-.21-.25,0-.13.12-.22.25-.21.13,0,.22.12.21.25,0,.13-.12.22-.25.21Z"/>
        <path class="cls-5" d="m49.88,56.88c-.16,0-.27-.15-.26-.31,0-.16.15-.27.31-.26.16,0,.27.15.26.31,0,.16-.15.27-.31.26Z"/>
        <path class="cls-5" d="m41.55,53.89c-.2-.02-.35-.19-.33-.39.02-.2.19-.35.39-.33.2.02.34.19.33.39-.02.2-.19.35-.39.33Z"/>
        <path class="cls-5" d="m36.06,55.07c-.15,0-.27-.15-.25-.3,0-.15.15-.27.3-.25.15,0,.27.15.25.3,0,.15-.15.27-.3.25Z"/>
        <path class="cls-5" d="m28.92,59.73c-.14,0-.24-.14-.23-.28s.14-.24.28-.23c.14,0,.24.14.23.28s-.14.24-.28.23Z"/>
        <path class="cls-5" d="m28.93,59.7c-.12,0-.21-.12-.2-.24.01-.12.12-.21.24-.2.12,0,.21.12.2.24-.01.12-.12.21-.24.2Z"/>
        <path class="cls-5" d="m28.92,59.78c-.16,0-.28-.16-.27-.32s.16-.28.32-.27.28.16.27.32-.16.28-.32.27Z"/>
        <path class="cls-5" d="m28.93,59.68c-.11,0-.19-.11-.18-.22,0-.11.11-.19.22-.18.11,0,.19.11.18.22,0,.11-.11.19-.22.18Z"/>
        <path class="cls-5" d="m41.55,53.98c-.25-.02-.43-.24-.41-.49s.24-.43.48-.41.43.24.41.49-.24.43-.48.41Z"/>
        <path class="cls-5" d="m34.18,44.94c-.11,0-.2-.11-.19-.23,0-.12.11-.2.23-.19.12,0,.2.11.19.23,0,.12-.11.2-.23.19Z"/>
        <path class="cls-5" d="m42.74,39.73c-.2-.02-.36-.2-.34-.4s.2-.36.4-.34.36.2.34.4c-.02.21-.2.36-.4.34Z"/>
        <path class="cls-5" d="m41.57,53.7c-.09,0-.16-.09-.15-.18,0-.09.09-.16.18-.15.09,0,.16.09.15.18,0,.09-.09.16-.18.15Z"/>
        <path class="cls-5" d="m41.57,53.74c-.11,0-.2-.11-.19-.22,0-.11.11-.2.22-.19.11,0,.2.11.19.22,0,.11-.11.2-.22.19Z"/>
        <path class="cls-5" d="m34.17,45c-.15,0-.26-.14-.24-.29,0-.15.14-.26.29-.25s.26.14.24.29c0,.15-.14.26-.29.24h0Z"/>
        <path class="cls-5" d="m27.52,52.01c-.1,0-.18-.1-.17-.2,0-.1.1-.18.2-.17.1,0,.18.1.17.2,0,.1-.1.18-.2.17Z"/>
        <path class="cls-5" d="m41.57,53.73c-.11,0-.19-.1-.18-.21,0-.11.1-.19.21-.18.11,0,.19.1.18.21,0,.11-.1.19-.21.18Z"/>
        <path class="cls-5" d="m36.06,55.08c-.16,0-.27-.15-.26-.31,0-.16.15-.27.31-.26.16,0,.27.15.26.31,0,.16-.15.28-.31.26Z"/>
        <path class="cls-5" d="m36.07,55c-.11,0-.2-.11-.19-.23,0-.12.11-.2.23-.19.12,0,.2.11.19.23,0,.12-.11.2-.23.19Z"/>
        <path class="cls-5" d="m27.51,52.15c-.18-.02-.31-.17-.3-.36.02-.18.17-.31.35-.3.18.02.31.17.3.35-.02.18-.17.31-.35.3h0Z"/>
        <path class="cls-5" d="m41.57,53.74c-.11,0-.2-.11-.19-.22,0-.11.11-.2.22-.19.11,0,.2.11.19.23,0,.11-.11.2-.23.19h0Z"/>
        <path class="cls-5" d="m28.92,59.81c-.18-.02-.31-.17-.3-.36.02-.18.17-.31.35-.3.18.02.31.17.3.36-.02.18-.17.31-.35.3Z"/>
        <path class="cls-5" d="m23.15,53.65c-.15,0-.26-.14-.25-.29s.14-.26.29-.25c.15,0,.26.14.25.29s-.14.26-.29.25Z"/>
        <path class="cls-5" d="m27.51,52.12c-.16,0-.29-.16-.27-.32.01-.17.16-.29.32-.27.16,0,.29.16.27.33-.01.16-.16.29-.32.27h0Z"/>
        <path class="cls-5" d="m28.92,59.78c-.16,0-.29-.16-.27-.32.01-.17.16-.29.32-.27.16,0,.29.16.27.32-.01.16-.16.29-.32.27Z"/>
        <path class="cls-5" d="m36.06,55.07c-.15,0-.26-.15-.25-.29,0-.15.15-.26.29-.25.15,0,.26.15.25.3,0,.15-.15.26-.3.25h0Z"/>
        <path class="cls-5" d="m36.07,55.02c-.12,0-.22-.12-.2-.24,0-.12.12-.22.24-.2.12,0,.22.12.2.24,0,.12-.12.21-.24.2Z"/>
        <path class="cls-5" d="m27.52,52.08c-.14,0-.24-.13-.23-.27s.13-.24.27-.23c.14,0,.24.13.23.27s-.13.24-.27.23Z"/>
        <path class="cls-5" d="m28.93,59.7c-.12,0-.21-.12-.2-.24.01-.12.12-.21.24-.2.12,0,.22.12.2.24-.01.12-.12.22-.24.2Z"/>
        <path class="cls-5" d="m28.92,59.83c-.19-.02-.33-.19-.32-.38.02-.19.19-.33.38-.32.19.02.33.19.32.38-.02.19-.19.33-.38.32Z"/>
        <path class="cls-5" d="m23.15,53.69c-.17,0-.29-.16-.28-.33.01-.17.16-.29.33-.28.17,0,.29.16.28.33-.01.17-.16.29-.33.28Z"/>
        <path class="cls-5" d="m28.93,59.63c-.08,0-.14-.08-.14-.16s.08-.15.16-.14c.08,0,.15.08.14.16,0,.08-.08.15-.16.14Z"/>
        <path class="cls-5" d="m28.91,59.88c-.22-.02-.38-.22-.37-.44.02-.22.21-.39.44-.37.22.02.38.22.37.44-.02.22-.21.39-.44.37Z"/>
        <path class="cls-5" d="m27.5,52.27c-.24-.02-.42-.24-.4-.48.02-.24.23-.42.48-.4.24.02.42.24.4.48-.02.24-.23.42-.48.4Z"/>
        <path class="cls-5" d="m22.7,42.25c-.18,0-.31-.17-.29-.35.02-.18.17-.31.35-.29s.31.17.29.35c-.02.18-.17.31-.35.29Z"/>
        <path class="cls-5" d="m29.74,37.51c-.21-.02-.36-.2-.35-.41.02-.21.2-.37.41-.35s.36.2.35.41c-.02.21-.2.37-.41.35Z"/>
        <path class="cls-5" d="m27.51,52.21c-.21-.02-.37-.2-.35-.42.02-.21.2-.37.41-.35s.37.21.35.42-.2.37-.42.35h.01Z"/>
        <path class="cls-5" d="m34.18,44.93c-.11,0-.19-.1-.18-.21,0-.11.1-.18.21-.18s.18.1.18.21-.1.19-.21.18Z"/>
        <path class="cls-5" d="m34.18,44.88c-.08,0-.14-.08-.13-.16,0-.08.08-.14.16-.13.08,0,.14.08.13.16,0,.08-.08.14-.16.13Z"/>
        <path class="cls-5" d="m29.73,37.61c-.26-.02-.46-.26-.44-.52.02-.26.26-.46.52-.44s.46.26.44.52c-.02.26-.26.46-.52.44Z"/>
        <path class="cls-5" d="m27.51,52.12c-.16,0-.28-.16-.27-.32s.16-.29.32-.27c.16,0,.28.16.27.32s-.16.29-.32.27Z"/>
        <path class="cls-5" d="m27.52,52.03c-.11,0-.2-.11-.19-.22s.11-.2.22-.19.2.11.19.22c0,.11-.11.2-.22.19Z"/>
        <path class="cls-5" d="m22.71,42.18c-.14,0-.24-.13-.23-.27s.13-.24.27-.23c.14,0,.24.13.23.27s-.13.24-.27.23Z"/>
        <path class="cls-5" d="m16.52,48.79c-.16,0-.27-.15-.26-.31s.15-.28.31-.26c.16,0,.27.15.26.31s-.15.28-.31.26Z"/>
        <path class="cls-5" d="m27.52,52.07c-.14,0-.24-.13-.22-.27.01-.14.13-.24.27-.23.14,0,.24.13.23.27s-.13.24-.27.23h-.01Z"/>
        <path class="cls-5" d="m23.15,53.69c-.17,0-.29-.16-.28-.33.02-.17.16-.29.33-.28.17,0,.29.16.28.33-.01.17-.16.29-.33.28Z"/>
        <path class="cls-5" d="m23.15,53.66c-.15,0-.27-.15-.25-.3.01-.15.15-.27.3-.25.15,0,.27.15.25.3-.01.15-.15.27-.3.25Z"/>
        <path class="cls-5" d="m16.52,48.71c-.11,0-.2-.11-.19-.23,0-.12.11-.2.23-.19.11,0,.2.11.19.23s-.11.2-.23.19Z"/>
        <path class="cls-5" d="m27.52,52.01c-.1,0-.17-.1-.16-.2,0-.1.1-.17.2-.17s.17.1.16.2c0,.1-.1.17-.2.16h0Z"/>
        <path class="cls-5" d="m8.66,57.87c-.23-.02-.39-.22-.37-.45s.22-.39.45-.37.39.22.37.45-.22.39-.45.37Z"/>
        <path class="cls-5" d="m16.52,48.77c-.14,0-.25-.14-.24-.28s.14-.25.28-.24.25.14.23.28c-.01.14-.14.25-.28.24h.01Z"/>
        <path class="cls-5" d="m23.15,53.67c-.16,0-.28-.16-.27-.32s.16-.28.32-.27.28.16.27.32-.16.28-.32.27Z"/>
        <path class="cls-5" d="m23.15,53.63c-.14,0-.24-.14-.23-.28s.14-.24.27-.23c.14,0,.24.14.23.28s-.14.24-.27.23Z"/>
        <path class="cls-5" d="m16.52,48.74c-.13,0-.23-.13-.22-.26.01-.13.13-.23.26-.22.13,0,.23.13.22.26-.01.13-.13.23-.26.22Z"/>
        <path class="cls-5" d="m8.68,57.66c-.11,0-.19-.11-.18-.22,0-.11.11-.19.22-.18.11,0,.19.11.18.22,0,.11-.11.19-.22.18Z"/>
        <path class="cls-5" d="m29.75,37.46c-.18-.02-.31-.18-.3-.36.02-.18.17-.31.35-.3.18.02.31.18.3.36-.02.18-.17.31-.36.3h.01Z"/>
        <path class="cls-5" d="m21.9,32.28c-.17,0-.3-.17-.28-.34.02-.17.17-.3.34-.29.17.02.3.17.29.34-.02.17-.17.3-.34.29h-.01Z"/>
        <path class="cls-5" d="m34.18,19.54c-.22-.02-.37-.21-.36-.43.02-.22.21-.38.42-.36.22.02.37.21.36.43-.02.22-.21.38-.42.36Z"/>
        <path class="cls-5" d="m29.76,37.35c-.12,0-.21-.12-.2-.24.01-.12.12-.21.24-.2.12,0,.21.12.2.24-.01.12-.12.21-.24.2Z"/>
        <path class="cls-5" d="m29.76,37.36c-.13,0-.23-.13-.21-.26.01-.13.13-.23.26-.21s.23.13.21.26c-.01.13-.13.23-.25.21h-.01Z"/>
        <path class="cls-5" d="m21.9,32.26c-.16,0-.28-.16-.27-.32s.16-.28.32-.27.28.16.27.32-.16.28-.32.27Z"/>
        <path class="cls-5" d="m15.78,34.78c-.11,0-.19-.11-.18-.21,0-.11.1-.19.21-.18.11,0,.19.1.18.21,0,.11-.1.19-.21.18Z"/>
        <path class="cls-5" d="m29.75,37.39c-.14,0-.25-.14-.24-.28s.14-.25.28-.24c.14,0,.25.14.23.28-.01.14-.14.25-.28.24h.01Z"/>
        <path class="cls-5" d="m22.72,42.09c-.09,0-.15-.09-.15-.17,0-.09.09-.16.17-.15.09,0,.15.09.15.18s-.09.15-.17.15h0Z"/>
        <path class="cls-5" d="m22.7,42.28c-.19-.02-.33-.19-.32-.38.02-.19.19-.34.38-.32.19.02.33.19.32.38-.02.19-.19.34-.38.32Z"/>
        <path class="cls-5" d="m15.76,35.01c-.24-.02-.41-.23-.39-.47.02-.24.23-.42.47-.39.24.02.41.23.39.47s-.23.41-.47.39Z"/>
        <path class="cls-5" d="m29.75,37.38c-.14,0-.24-.14-.23-.28s.14-.25.28-.23c.14,0,.24.14.23.28s-.14.24-.28.23Z"/>
        <path class="cls-5" d="m16.52,48.72c-.12,0-.21-.11-.2-.23.01-.12.11-.21.23-.2.12,0,.21.12.2.23-.01.12-.11.21-.23.2Z"/>
        <path class="cls-5" d="m12.07,37.2c-.24-.02-.41-.23-.39-.47.02-.24.23-.41.46-.39.24.02.41.23.39.47-.02.24-.23.41-.46.39Z"/>
        <path class="cls-5" d="m15.78,34.77c-.1,0-.18-.1-.17-.21,0-.11.1-.18.21-.17.1,0,.18.1.17.21,0,.1-.1.18-.21.17Z"/>
        <path class="cls-5" d="m16.51,48.88c-.2-.02-.35-.2-.34-.4.02-.2.2-.36.4-.34.2.02.35.2.34.4-.02.2-.2.36-.4.34Z"/>
        <path class="cls-5" d="m22.71,42.21c-.15,0-.27-.15-.25-.3.01-.15.15-.27.3-.25.15,0,.27.15.25.3-.01.15-.15.27-.3.25Z"/>
        <path class="cls-5" d="m22.7,42.28c-.19-.02-.34-.19-.32-.38.02-.19.19-.34.38-.32.19.02.34.19.32.38-.02.19-.19.34-.38.32Z"/>
        <path class="cls-5" d="m15.75,35.06c-.26-.02-.46-.26-.44-.52.02-.26.26-.46.52-.44.26.02.46.26.44.52-.02.26-.26.46-.52.44Z"/>
        <path class="cls-5" d="m16.51,48.83c-.18-.02-.31-.17-.29-.35.02-.18.17-.31.35-.29s.31.17.29.35c-.02.18-.17.31-.35.29Z"/>
        <path class="cls-5" d="m16.52,48.74c-.13,0-.22-.12-.21-.25s.12-.22.25-.21c.13,0,.22.12.21.25s-.12.22-.25.21Z"/>
        <path class="cls-5" d="m12.08,37.06c-.16,0-.28-.16-.26-.32.01-.16.15-.28.31-.26.16,0,.28.16.26.32-.01.16-.15.28-.31.26Z"/>
        <path class="cls-5" d="m16.52,48.77c-.14,0-.25-.14-.23-.28.01-.14.14-.25.28-.24.14,0,.25.14.23.28-.01.14-.14.25-.28.24Z"/>
        <path class="cls-5" d="m8.67,57.68c-.12,0-.21-.12-.2-.24.01-.12.12-.21.24-.2s.21.12.2.24c-.01.12-.12.21-.24.2Z"/>
        <path class="cls-5" d="m8.67,57.75c-.16,0-.28-.16-.26-.32.01-.16.16-.28.32-.26.16,0,.28.16.26.32-.01.16-.16.28-.32.26Z"/>
        <path class="cls-5" d="m16.53,48.65c-.08,0-.14-.08-.13-.16,0-.08.08-.14.15-.13.08,0,.14.08.13.16,0,.08-.08.14-.15.13Z"/>
        <path class="cls-5" d="m8.67,57.76c-.17,0-.29-.16-.27-.33.01-.17.16-.29.33-.27.17,0,.29.16.27.33-.01.17-.16.29-.33.27Z"/>
        <path class="cls-5" d="m8.67,57.68c-.12,0-.22-.12-.21-.25.01-.12.12-.22.25-.21.12,0,.22.12.2.25-.01.12-.12.22-.24.21Z"/>
        <path class="cls-5" d="m15.78,34.82c-.13,0-.23-.13-.22-.26.01-.13.13-.23.26-.22s.23.13.22.26c-.01.13-.13.23-.26.22Z"/>
        <path class="cls-5" d="m9.96,31.14c-.18-.02-.32-.18-.3-.36s.18-.32.36-.3c.18.02.32.18.3.36-.02.18-.18.32-.36.3Z"/>
        <path class="cls-5" d="m19.83,23.76c-.17-.02-.3-.17-.28-.34.02-.17.17-.3.34-.28.17.02.3.17.28.34-.02.17-.17.3-.34.28Z"/>
        <path class="cls-5" d="m15.77,34.83c-.13,0-.23-.13-.22-.27.01-.14.13-.24.27-.22.13,0,.23.13.22.27-.01.13-.13.23-.27.22Z"/>
        <path class="cls-5" d="m21.9,32.23c-.14,0-.25-.14-.24-.28.01-.14.14-.25.28-.24.14.01.25.14.24.28s-.14.25-.28.24Z"/>
        <path class="cls-5" d="m21.9,32.23c-.14,0-.25-.14-.24-.29.01-.15.14-.25.28-.24s.25.14.24.29c-.01.14-.14.25-.28.24Z"/>
        <path class="cls-5" d="m19.83,23.75c-.17-.02-.29-.16-.28-.33.02-.17.16-.29.33-.28.17.02.29.16.28.33s-.16.29-.33.28Z"/>
        <path class="cls-5" d="m15.76,35.02c-.24-.02-.42-.24-.4-.48.02-.24.23-.42.48-.4.24.02.42.24.4.48-.02.24-.23.42-.48.4Z"/>
        <path class="cls-5" d="m15.77,34.85c-.15,0-.26-.14-.24-.29.01-.15.14-.26.29-.24.15,0,.26.14.24.29-.01.15-.14.26-.29.25h0Z"/>
        <path class="cls-5" d="m9.98,30.96c-.08,0-.15-.08-.14-.17s.08-.15.17-.14c.08,0,.15.08.14.17,0,.08-.08.15-.17.14Z"/>
        <path class="cls-5" d="m3.98,37.37c-.16,0-.29-.16-.27-.33,0-.17.16-.29.32-.27.17,0,.29.16.27.33-.01.16-.16.29-.33.27h0Z"/>
        <path class="cls-5" d="m15.78,34.74c-.08,0-.15-.08-.14-.17,0-.08.08-.15.17-.14.08,0,.15.08.14.16,0,.09-.08.15-.17.14h0Z"/>
        <path class="cls-5" d="m12.06,37.29c-.28-.02-.49-.28-.47-.56.02-.29.28-.5.56-.47.28.03.5.28.47.56-.02.29-.28.5-.56.47Z"/>
        <path class="cls-5" d="m12.09,36.95c-.1,0-.17-.09-.16-.19,0-.1.09-.17.19-.16.1,0,.17.09.16.19,0,.1-.09.17-.19.16Z"/>
        <path class="cls-5" d="m3.99,37.27c-.11,0-.2-.11-.19-.22,0-.11.11-.2.22-.19.11,0,.2.11.19.22,0,.11-.11.2-.22.19Z"/>
        <path class="cls-5" d="m15.78,34.8c-.12,0-.21-.12-.19-.23.01-.12.11-.21.23-.2.12,0,.21.12.2.23-.01.12-.12.21-.23.2h-.01Z"/>
        <path class="cls-5" d="m3.98,37.37c-.17,0-.29-.16-.28-.33,0-.17.16-.29.33-.28.17,0,.29.16.28.33-.01.17-.16.29-.33.28Z"/>
        <path class="cls-5" d="m12.09,37c-.12,0-.22-.12-.21-.25s.12-.22.25-.21c.13,0,.22.12.21.25s-.12.22-.25.21Z"/>
        <path class="cls-5" d="m12.08,37.02c-.13,0-.23-.13-.22-.27.01-.13.13-.24.27-.22.13,0,.23.13.22.27-.01.13-.13.23-.27.22Z"/>
        <path class="cls-5" d="m3.98,37.33c-.14,0-.25-.14-.24-.28s.14-.25.28-.24.25.14.24.28-.14.25-.28.24Z"/>
        <path class="cls-5" d="m19.83,23.73c-.15-.01-.27-.15-.25-.3.01-.15.15-.27.3-.25.15.01.27.15.25.3-.01.15-.15.27-.3.25Z"/>
        <path class="cls-5" d="m12.46,12.19c-.1,0-.18-.1-.17-.21,0-.11.1-.18.21-.17.1,0,.18.1.17.21,0,.1-.1.18-.21.17Z"/>
        <path class="cls-5" d="m20.44,11.31c-.12-.01-.21-.12-.2-.24.01-.12.12-.21.24-.2.12.01.21.12.2.24-.01.12-.12.21-.24.2Z"/>
        <path class="cls-5" d="m19.83,23.75c-.17-.01-.29-.16-.28-.33.02-.17.16-.29.33-.28s.29.16.28.33-.16.29-.33.28Z"/>
        <path class="cls-5" d="m19.82,23.81c-.2-.02-.34-.19-.33-.39.02-.2.19-.34.39-.33.2.02.34.19.33.39-.02.2-.19.34-.39.33Z"/>
        <path class="cls-5" d="m12.44,12.32c-.18-.02-.31-.17-.29-.35s.17-.31.35-.29.31.17.29.35-.17.31-.35.29Z"/>
        <path class="cls-5" d="m5.59,19.3c-.11-.01-.2-.11-.19-.23.01-.12.11-.2.23-.19s.2.11.19.23c-.01.12-.11.2-.23.19Z"/>
        <path class="cls-5" d="m19.83,23.67c-.12-.01-.22-.12-.2-.25.01-.12.12-.22.24-.21.12.01.22.12.21.25-.01.12-.12.22-.24.21h0Z"/>
        <path class="cls-5" d="m9.96,31.14c-.19-.02-.32-.18-.31-.37.02-.19.18-.32.36-.31.19.02.32.18.31.37-.02.19-.18.32-.37.31h.01Z"/>
        <path class="cls-5" d="m9.97,31.12c-.17-.01-.3-.17-.29-.34.02-.18.17-.3.34-.29.17.02.3.17.29.35-.02.18-.17.3-.34.29h0Z"/>
        <path class="cls-5" d="m5.57,19.52c-.23-.02-.4-.23-.38-.46s.23-.41.46-.39.4.23.38.46-.23.41-.46.39Z"/>
        <path class="cls-5" d="m19.82,23.78c-.19-.02-.32-.18-.31-.37.02-.19.18-.32.37-.31.19.02.32.18.31.37-.02.19-.18.32-.37.31Z"/>
        <path class="cls-5" d="m3.98,37.42c-.19-.02-.34-.19-.32-.38.02-.19.19-.34.38-.32.19.02.34.19.32.38-.02.19-.19.34-.38.32Z"/>
        <path class="cls-5" d="m5.59,19.33c-.13-.01-.23-.13-.22-.26.01-.13.13-.23.26-.22.13.01.23.13.22.26-.01.13-.13.23-.26.22Z"/>
        <path class="cls-5" d="m3.99,37.31c-.13,0-.23-.13-.22-.26,0-.13.13-.23.26-.22.13,0,.23.13.22.26-.01.13-.13.23-.26.22Z"/>
        <path class="cls-5" d="m9.96,31.21c-.22-.02-.38-.22-.37-.44.02-.22.21-.39.44-.37.22.02.38.21.37.44-.02.22-.21.39-.44.37Z"/>
        <path class="cls-5" d="m9.97,31.08c-.15-.01-.26-.15-.25-.3s.15-.26.3-.25c.15.01.26.15.25.3s-.15.26-.3.25Z"/>
        <path class="cls-5" d="m5.56,19.65c-.3-.03-.53-.3-.5-.6.03-.31.3-.53.6-.5.3.03.53.3.5.6-.03.31-.3.53-.6.5Z"/>
        <path class="cls-5" d="m3.98,37.4c-.18-.02-.32-.18-.3-.36s.18-.32.36-.3.32.18.3.36-.18.32-.36.3Z"/>
        <path class="cls-5" d="m3.97,37.5c-.24-.02-.41-.23-.39-.47s.23-.41.47-.39.41.23.39.47-.23.41-.47.39Z"/>
        <path class="cls-5" d="m3.99,37.23c-.09,0-.16-.09-.15-.18,0-.09.09-.16.18-.15.09,0,.16.09.15.18,0,.09-.09.16-.18.15Z"/>
        <path class="cls-5" d="m5.58,19.41c-.17-.02-.3-.17-.29-.34.02-.17.17-.3.34-.29.17.02.3.17.29.34-.02.17-.17.3-.34.29Z"/>
        <path class="cls-5" d="m2.29,15.64c-.11,0-.19-.11-.18-.22,0-.11.11-.19.22-.18.11,0,.19.11.18.22,0,.11-.11.19-.22.18Z"/>
        <path class="cls-5" d="m5.92,5.57c-.11,0-.19-.11-.18-.22,0-.11.11-.19.22-.18.11,0,.19.11.18.22,0,.11-.11.2-.22.18Z"/>
        <path class="cls-5" d="m5.58,19.45c-.2-.02-.34-.19-.32-.39.02-.2.19-.34.39-.32s.34.19.32.39c-.02.2-.19.34-.39.32Z"/>
        <path class="cls-5" d="m12.44,12.32c-.18-.02-.32-.18-.3-.36.02-.18.18-.32.36-.3.18.02.32.18.3.36-.02.18-.18.32-.36.3Z"/>
        <path class="cls-5" d="m12.46,12.16c-.09,0-.16-.09-.15-.18,0-.09.09-.16.18-.15.09,0,.16.09.15.18,0,.09-.09.16-.18.15Z"/>
        <path class="cls-5" d="m5.91,5.66c-.16-.01-.28-.16-.27-.32.01-.16.16-.28.32-.27.16.01.28.16.27.32-.01.16-.16.29-.32.27Z"/>
        <path class="cls-5" d="m5.58,19.36c-.15-.01-.26-.14-.24-.29.01-.15.14-.26.29-.25s.26.14.24.29c-.01.15-.14.26-.29.25Z"/>
        <path class="cls-5" d="m5.59,19.31c-.12-.01-.2-.11-.19-.23.01-.12.11-.21.23-.19.12.01.2.11.19.23-.01.12-.11.21-.23.2h0Z"/>
        <path class="cls-5" d="m2.29,15.66c-.12-.01-.21-.12-.2-.24s.12-.21.24-.2c.12.01.21.12.2.24s-.12.21-.24.2Z"/>
        <path class="cls-5" d="m5.58,19.37c-.15-.01-.26-.15-.25-.3s.15-.26.3-.25.26.15.25.3-.15.26-.3.25Z"/>
        <path class="cls-5" d="m5.56,19.58c-.27-.02-.47-.26-.44-.53.02-.27.26-.47.53-.45.27.02.47.26.44.53-.02.27-.26.47-.53.45Z"/>
        <path class="cls-5" d="m5.89,5.84c-.26-.02-.46-.25-.43-.52.02-.26.25-.46.52-.43.26.02.46.25.43.52-.02.26-.25.46-.52.43Z"/>
        <path class="cls-5" d="m5.91,5.64c-.15-.01-.27-.15-.25-.3.01-.15.15-.27.3-.25.15.01.27.15.25.3-.01.15-.15.27-.3.25Z"/>
        <path class="cls-5" d="m2.28,15.74c-.16-.01-.28-.16-.27-.32s.16-.28.32-.27c.16.01.28.16.27.32s-.16.28-.32.27Z"/>
        <path class="cls-5" d="m2.28,15.74c-.17-.01-.29-.16-.27-.33,0-.17.16-.29.33-.28.17.01.29.16.27.33,0,.17-.16.29-.33.27h0Z"/>
      </g>
    </g>
    <g class="cls-3">
      <polygon class="cls-4" points="120 53.41 118.95 52.76 120 52.25 120 52.21 118.88 52.75 120 53.45 120 53.41"/>
      <polygon class="cls-4" points="120 29 117.87 29.71 120 27.82 120 27.77 117.79 29.74 117.8 29.77 120 29.04 120 29"/>
      <polygon class="cls-4" points="120 32.75 116.6 35.2 117.81 29.76 120 29.04 120 29 117.79 29.73 117.78 29.74 116.55 35.28 120 32.8 120 32.75"/>
      <polygon class="cls-4" points="120 35.9 116.62 35.23 120 32.8 120 32.75 116.56 35.22 116.53 35.25 120 35.94 120 35.9"/>
      <polygon class="cls-4" points="120 49.07 116.64 48.77 116.59 35.3 120 40.76 120 40.7 116.59 35.23 116.56 35.18 116.6 48.79 116.6 48.81 120 49.1 120 49.07"/>
      <polygon class="cls-4" points="120 40.7 116.61 35.26 120 35.94 120 35.9 116.58 35.22 116.54 35.21 120 40.76 120 40.7"/>
      <polygon class="cls-4" points="120 50.61 109.86 52.54 116.62 48.81 120 49.1 120 49.07 116.62 48.77 116.62 48.77 109.75 52.56 109.76 52.6 120 50.64 120 50.61"/>
      <polygon class="cls-4" points="120 52.21 118.91 52.74 109.92 52.56 120 50.64 120 50.61 109.75 52.56 109.76 52.6 118.91 52.77 118.92 52.77 120 52.25 120 52.21"/>
      <polygon class="cls-4" points="120 18.88 118 18.05 119.97 6.37 120 6.43 120 6.35 119.98 6.3 119.96 6.25 117.96 18.05 117.96 18.07 120 18.92 120 18.88"/>
      <polygon class="cls-4" points="120 23.86 114.68 25.54 117.99 18.08 120 18.92 120 18.88 117.98 18.04 117.97 18.03 114.63 25.56 114.62 25.6 120 23.9 120 23.86"/>
      <polygon class="cls-4" points="120 27.77 117.8 29.72 114.68 25.58 120 23.9 120 23.86 114.64 25.55 114.62 25.56 117.78 29.76 117.79 29.77 120 27.82 120 27.77"/>
      <path class="cls-4" d="m110.88,29.33l3.78-3.79,1.94,9.76s-5.72-5.97-5.72-5.97Zm3.75-3.72l-3.71,3.72,5.61,5.86-1.91-9.58h.01Z"/>
      <path class="cls-4" d="m116.56,35.24l-1.93-9.67h.03l3.15,4.17h0l-1.22,5.5h-.03Zm-1.88-9.6l1.9,9.51,1.2-5.4-3.1-4.11Z"/>
      <path class="cls-4" d="m106.47,36.87l.02-.03,4.41-7.54,5.68,5.93v.02h0s-10.1,1.63-10.1,1.63h0Zm4.44-7.53l-4.37,7.47,10-1.6s-5.63-5.87-5.63-5.87Z"/>
      <path class="cls-4" d="m106.47,36.84h.03l10.09-1.62.05,13.62-.03-.04-10.13-11.96h-.01Zm10.08-1.58l-10.02,1.6,10.06,11.88-.05-13.48h.01Z"/>
      <path class="cls-4" d="m101.11,49.01v-.02l5.41-12.2,3.26,15.8h-.02l-8.64-3.58h-.01Zm5.39-12.11l-5.35,12.09,8.58,3.56-3.23-15.64h0Z"/>
      <path class="cls-4" d="m109.74,52.61v-.02l-3.25-15.73.03-.02,10.13,11.96h-.02l-6.88,3.81h-.01Zm-3.2-15.69l3.23,15.64,6.83-3.77-10.05-11.87h-.01Z"/>
      <polygon class="cls-4" points="115.57 0 119.88 6.23 111.8 0 111.74 0 119.95 6.32 119.98 6.3 115.61 0 115.57 0"/>
      <polygon class="cls-4" points="120 6.04 119.95 6.26 115.61 0 115.57 0 119.97 6.35 120 6.21 120 6.04"/>
      <polygon class="cls-4" points="111.74 0 119.93 6.31 103.97 14.69 109.54 0 109.51 0 103.9 14.76 119.97 6.32 120 6.31 111.8 0 111.74 0"/>
      <path class="cls-4" d="m103.89,14.73l.04-.02,16.06-8.44v.03l-1.99,11.77h-.02l-14.09-3.34Zm16.05-8.39l-15.96,8.38,13.98,3.31,1.98-11.7h0Z"/>
      <path class="cls-4" d="m104.5,20.61h0l-.58-5.93,10.76,10.89-.02.02h-.01l-10.14-4.98h-.01Zm-.54-5.84l.57,5.81,10.03,4.92-10.61-10.73h.01Z"/>
      <path class="cls-4" d="m103.88,14.7h.06l14.06,3.35v.02l-3.35,7.54-.02-.02-10.75-10.89Zm14.07,3.37l-13.96-3.31,10.65,10.78s3.31-7.47,3.31-7.47Z"/>
      <path class="cls-4" d="m101.3,29.1v-.03l3.21-8.49h.02l10.17,5h-.04l-13.35,3.52h0Zm3.23-8.47l-3.17,8.42,13.24-3.48-10.07-4.94Z"/>
      <path class="cls-4" d="m101.33,29.09v-.03l13.38-3.52-.04.05-3.75,3.76h0l-9.58-.26h0Zm13.26-3.48l-13.14,3.45,9.45.25,3.69-3.71h0Z"/>
      <path class="cls-4" d="m100.5,40.75v-.04l.82-11.7,5.22,7.84h-.01l-6.02,3.9h-.01Zm.84-11.63l-.8,11.56,5.95-3.84-5.14-7.72h0Z"/>
      <path class="cls-4" d="m101.29,29.05h.03l9.61.26-4.43,7.57-.02-.02-5.2-7.81h0Zm9.58.29l-9.52-.26,5.15,7.73s4.37-7.47,4.37-7.47Z"/>
      <path class="cls-4" d="m93.94,49.76l6.56-9.06h0l6.01-3.88v.03h0l-12.55,12.92-.03-.02h.01Zm6.58-9.02l-6.41,8.86,12.27-12.64-5.86,3.78Z"/>
      <path class="cls-4" d="m93.91,49.8l.03-.03,12.55-12.92.03.02-5.38,12.16h0l-7.22.78h-.01Zm12.54-12.87l-12.45,12.82,7.12-.76s5.33-12.06,5.33-12.06Z"/>
      <polygon class="cls-4" points="106.61 0 103.33 3.13 104 0 103.96 0 103.28 3.18 103.27 3.23 106.66 0 106.61 0"/>
      <polygon class="cls-4" points="108.01 0 103.46 3.05 106.66 0 106.61 0 103.29 3.17 103.31 3.2 108.07 0 108.01 0"/>
      <path class="cls-4" d="m96.32,5.27h.02l6.97-2.11v.02l.64,11.6-.03-.04s-7.6-9.47-7.6-9.47Zm6.96-2.06l-6.9,2.08,7.53,9.39-.63-11.47Z"/>
      <polygon class="cls-4" points="109.51 0 103.95 14.64 103.32 3.19 108.07 0 108.01 0 103.29 3.17 103.28 3.17 103.92 14.73 103.95 14.73 109.54 0 109.51 0"/>
      <path class="cls-4" d="m99.16,14.31h0l-2.82-9.03.03-.02,7.61,9.48-4.82-.44h0Zm-2.76-8.94l2.79,8.92,4.71.43-7.5-9.35Z"/>
      <path class="cls-4" d="m99.13,14.27h.04l4.78.44h0l.59,5.94s-5.41-6.38-5.41-6.38Zm4.79.47l-4.71-.43,5.28,6.23-.57-5.8Z"/>
      <path class="cls-4" d="m93.13,26.61v-.02l6.05-12.35v.06l2.16,14.77h-.02v.02s-8.19-2.48-8.19-2.48Zm6.03-12.26l-5.99,12.23,8.13,2.46s-2.14-14.69-2.14-14.69Z"/>
      <path class="cls-4" d="m101.32,29.14v-.07l-2.17-14.83,5.39,6.36h0l-3.21,8.54h-.01Zm-2.12-14.79l2.14,14.65,3.16-8.4s-5.3-6.25-5.3-6.25Z"/>
      <path class="cls-4" d="m88.57,33.42l4.58-6.85h.01l8.18,2.48v.02h0l-12.76,4.34h-.01Zm4.59-6.8l-4.51,6.74,12.62-4.29s-8.11-2.45-8.11-2.45Z"/>
      <path class="cls-4" d="m88.57,33.39h.04l12.74-4.34v.03l-.81,11.68h-.03l-11.94-7.36h0Zm12.74-4.3l-12.66,4.3,11.85,7.29s.81-11.59.81-11.59Z"/>
      <path class="cls-4" d="m93.94,49.78h0l-4.15-9.29h0l-1.2-7.1h.03l5.35,16.38h-.02s-.01.01-.01.01Zm-4.11-9.3l4.01,8.98-5.17-15.84s1.16,6.86,1.16,6.86Z"/>
      <path class="cls-4" d="m93.95,49.81v-.03l-5.37-16.43.04.03,11.92,7.34h-.01l-6.58,9.1h0Zm-5.31-16.39l5.32,16.3,6.53-9.01-11.85-7.29Z"/>
      <polygon class="cls-4" points="101.69 0 103.26 3.14 97.01 0 96.93 0 103.34 3.22 101.73 0 101.69 0"/>
      <polygon class="cls-4" points="103.96 0 103.29 3.13 101.73 0 101.69 0 103.28 3.19 103.31 3.24 104 0 103.96 0"/>
      <polygon class="cls-4" points="96.93 0 103.25 3.18 87.27 7.61 91.15 0 91.11 0 87.22 7.63 87.2 7.67 103.3 3.2 103.35 3.19 97.01 0 96.93 0"/>
      <path class="cls-4" d="m86.41,11.22v-.02l.82-3.59,11.96,6.67v.03l-12.77-3.1h0Zm.84-3.54l-.8,3.52,12.6,3.06s-11.8-6.58-11.8-6.58Z"/>
      <path class="cls-4" d="m87.19,7.63l9.17-2.38v.02l2.84,9.06-.04-.02s-11.97-6.68-11.97-6.68Zm9.15-2.34l-9.06,2.35,11.86,6.61-2.8-8.96Z"/>
      <path class="cls-4" d="m81.46,25.24l4.96-14.05,12.77,3.1.02.02h-.02l-17.73,10.94h0Zm4.98-14.02l-4.92,13.93,17.61-10.85-12.69-3.08Z"/>
      <path class="cls-4" d="m81.44,25.21l.04-.03,17.74-10.93-.03.05-6.02,12.31h-.01l-11.71-1.41h-.01Zm17.69-10.85l-17.59,10.84,11.6,1.4s5.99-12.24,5.99-12.24Z"/>
      <path class="cls-4" d="m83.74,33.15h0l-2.27-7.95.03-.02,7.15,8.23h-.04l-4.87-.27h0Zm-2.21-7.87l2.24,7.85,4.8.26s-7.04-8.11-7.04-8.11Z"/>
      <path class="cls-4" d="m81.45,25.17h.04l11.69,1.41-.02.02-4.56,6.81v-.02l-7.17-8.23h.02Zm11.68,1.45l-11.59-1.39,7.08,8.15,4.51-6.75h0Z"/>
      <path class="cls-4" d="m78.91,39.34l4.84-6.23h0l4.87.26v.02h0l-9.69,5.96-.02-.03v.02Zm4.86-6.2l-4.77,6.14,9.56-5.88-4.79-.26Z"/>
      <path class="cls-4" d="m78.87,39.37l9.76-6,1.21,7.14h-.02l-10.94-1.14h-.01Zm9.73-5.94l-9.62,5.92,10.82,1.12-1.19-7.04h0Z"/>
      <polygon class="cls-4" points="91.11 0 87.25 7.58 86.18 0 86.14 0 87.22 7.64 87.23 7.7 91.15 0 91.11 0"/>
      <polygon class="cls-4" points="82.13 0 87.21 7.63 82.12 10.27 80.82 0 80.79 0 82.09 10.3 82.09 10.32 87.26 7.65 82.17 0 82.13 0"/>
      <path class="cls-4" d="m82.06,10.3l5.21-2.69v.04l-.82,3.58-4.39-.92h0Zm5.16-2.64l-5.05,2.61,4.26.9.8-3.51h-.01Z"/>
      <path class="cls-4" d="m81.5,25.26l-.03-.06-2.94-8.05h0l3.56-6.87h.03s-.62,14.98-.62,14.98Zm-2.93-8.11l2.91,7.95.61-14.74s-3.52,6.79-3.52,6.79Z"/>
      <path class="cls-4" d="m81.47,25.19l.62-14.92,4.36.92v.02l-4.95,13.99h-.03Zm.65-14.9l-.61,14.77,4.89-13.86-4.28-.9h0Z"/>
      <path class="cls-4" d="m69.44,27.57h.06l12-2.4v.02l2.28,7.97h-.03l-14.31-5.58h0Zm12.04-2.37l-11.91,2.37,14.16,5.51s-2.25-7.88-2.25-7.88Z"/>
      <path class="cls-4" d="m65.61,39.82v-.02l3.88-12.25,9.44,11.8h-.01v.03l-13.31.45h0Zm3.89-12.22l-3.84,12.17,13.22-.45s-9.38-11.72-9.38-11.72Z"/>
      <path class="cls-4" d="m69.45,27.54l.06.02,14.28,5.56v.02l-4.86,6.24v-.02l-9.47-11.82h0Zm14.28,5.6l-14.17-5.52,9.37,11.71s4.8-6.19,4.8-6.19Z"/>
      <path class="cls-4" d="m68.68,13h.06l13.4-2.74-.02.03-3.57,6.88h-.01l-9.86-4.17Zm13.39-2.69l-13.28,2.7,9.74,4.12,3.53-6.82h.01Z"/>
      <path class="cls-4" d="m56.38,36.55l.03-.02,13.12-9-.02.05-3.87,12.24-9.27-3.27h.01Zm13.09-8.93l-13.01,8.92,9.17,3.24s3.84-12.16,3.84-12.16Z"/>
      <g>
        <path class="cls-5" d="m119.04,53.01c-.14.07-.31,0-.38-.12-.07-.14-.01-.31.12-.38.14-.07.31,0,.38.12s.01.31-.12.38Z"/>
        <path class="cls-5" d="m117.93,30.01c-.15.07-.32.01-.4-.13-.07-.15-.01-.32.13-.4.15-.07.32-.01.4.13.07.15.01.32-.13.4Z"/>
        <path class="cls-5" d="m117.92,29.99c-.14.07-.3.01-.37-.12-.07-.14-.01-.3.12-.37.13-.07.3-.01.37.12.07.14.01.3-.12.37Z"/>
        <path class="cls-5" d="m116.66,35.42c-.1.05-.21,0-.26-.09-.05-.1,0-.22.09-.26.1-.05.22,0,.26.09.05.1,0,.22-.09.26Z"/>
        <path class="cls-5" d="m116.69,35.47c-.13.06-.29,0-.35-.12-.07-.13-.01-.29.12-.35.13-.07.29,0,.35.12.06.13.01.29-.12.35Z"/>
        <path class="cls-5" d="m116.77,49.09c-.17.08-.37.02-.46-.15-.08-.17-.02-.37.15-.46.17-.08.37-.02.46.15.08.17.02.37-.15.46Z"/>
        <path class="cls-5" d="m116.67,35.42c-.1.05-.22,0-.27-.09-.05-.1,0-.22.09-.27.1-.05.22,0,.27.09.05.1.01.22-.09.27Z"/>
        <path class="cls-5" d="m116.71,35.52c-.15.08-.34.02-.42-.14-.08-.15-.02-.34.14-.42.15-.08.34-.02.42.14s.02.34-.14.42Z"/>
        <path class="cls-5" d="m116.77,49.09c-.17.08-.37.02-.45-.15-.08-.17-.02-.37.15-.46.17-.08.37-.02.45.15.08.17.02.37-.15.46Z"/>
        <path class="cls-5" d="m109.96,52.98c-.22.11-.49.02-.6-.2s-.02-.49.2-.6.49-.02.6.2.02.49-.2.6Z"/>
        <path class="cls-5" d="m119,52.94c-.1.05-.23,0-.28-.09-.05-.1,0-.23.09-.28.1-.05.23,0,.28.09.05.1.01.23-.09.28Z"/>
        <path class="cls-5" d="m119.11,53.14c-.21.11-.47.02-.58-.19s-.02-.47.19-.58.47-.02.58.19.02.47-.19.58Z"/>
        <path class="cls-5" d="m109.87,52.81c-.13.06-.28,0-.35-.11-.06-.13-.01-.28.11-.35.13-.06.28,0,.35.12.06.13.01.28-.12.35h.01Z"/>
        <path class="cls-5" d="m120,6.02c-.05,0-.11,0-.17.03-.14.07-.2.24-.13.39.06.11.18.17.29.16v-.57h0Z"/>
        <path class="cls-5" d="m120,6.1s-.09,0-.13.02c-.1.05-.14.18-.09.28.04.08.13.13.22.11,0,0,0-.41,0-.41Z"/>
        <path class="cls-5" d="m118.16,18.42c-.2.1-.45.02-.55-.18-.1-.2-.02-.45.18-.55.2-.1.45-.02.55.18.1.2.02.45-.18.55Z"/>
        <path class="cls-5" d="m120,6.05c-.05,0-.1,0-.15.02-.13.06-.18.22-.12.35.05.1.16.15.27.14,0,0,0-.51,0-.51Z"/>
        <path class="cls-5" d="m120,6.07s-.1,0-.14.02c-.12.06-.16.2-.11.32.05.1.15.14.25.13v-.47Z"/>
        <path class="cls-5" d="m118.07,18.24c-.1.05-.22,0-.27-.09-.05-.1,0-.22.09-.27.1-.05.22-.01.27.09.05.1,0,.22-.09.27Z"/>
        <path class="cls-5" d="m114.74,25.75c-.1.05-.22,0-.27-.09-.05-.1,0-.22.09-.27s.22,0,.27.09c.05.1,0,.22-.09.27Z"/>
        <path class="cls-5" d="m117.91,29.98c-.13.06-.28.01-.35-.11-.06-.13-.01-.28.11-.35.13-.06.28-.01.35.11.06.13.01.28-.11.35Z"/>
        <path class="cls-5" d="m117.91,29.98c-.13.06-.29.01-.35-.12-.06-.13-.01-.29.12-.35.13-.06.29-.01.35.12.07.13.01.29-.12.35Z"/>
        <path class="cls-5" d="m114.82,25.91c-.19.09-.42.02-.51-.17-.09-.19-.02-.42.17-.51s.42-.02.51.17c.09.19.02.42-.17.51Z"/>
        <path class="cls-5" d="m116.69,35.46c-.12.06-.28,0-.34-.11s-.01-.28.11-.34.28,0,.34.11.01.28-.11.34Z"/>
        <path class="cls-5" d="m111,29.51c-.1.05-.22,0-.27-.09-.05-.1,0-.22.09-.27.1-.05.22,0,.27.09.05.1,0,.22-.09.27Z"/>
        <path class="cls-5" d="m114.8,25.88c-.17.09-.38.02-.47-.16-.09-.17-.02-.39.16-.47.17-.09.38-.02.47.16.09.17.02.39-.16.47Z"/>
        <path class="cls-5" d="m116.65,35.39c-.09.04-.19,0-.23-.08-.04-.09,0-.19.08-.24.09-.04.19,0,.23.08.04.09,0,.19-.08.23h0Z"/>
        <path class="cls-5" d="m117.95,30.06c-.17.08-.37.02-.46-.15-.08-.17-.02-.38.15-.46.17-.09.37-.02.46.15.08.17.02.38-.15.46Z"/>
        <path class="cls-5" d="m117.88,29.92c-.09.05-.2,0-.25-.08-.05-.09,0-.2.08-.25.09-.05.2,0,.25.08.05.09,0,.2-.08.25Z"/>
        <path class="cls-5" d="m114.71,25.7c-.07.04-.16,0-.2-.07s0-.16.07-.2.16,0,.2.07c.04.07,0,.16-.07.2Z"/>
        <path class="cls-5" d="m116.71,35.51c-.15.08-.33,0-.4-.13-.07-.15-.01-.33.13-.4.15-.07.33,0,.4.13.07.15.01.33-.13.4Z"/>
        <path class="cls-5" d="m116.75,35.59c-.19.1-.43.02-.52-.17-.1-.19-.02-.43.17-.52.19-.1.43-.02.52.17.1.19.02.43-.17.52Z"/>
        <path class="cls-5" d="m111.07,29.66c-.18.09-.4.02-.49-.16s-.02-.4.16-.49.4-.02.49.16.02.4-.16.49Z"/>
        <path class="cls-5" d="m106.62,37.08c-.13.06-.28,0-.34-.11-.06-.13-.01-.28.11-.34.13-.06.28,0,.34.11.06.13.01.28-.11.34Z"/>
        <path class="cls-5" d="m116.63,35.35c-.06.03-.14,0-.17-.06s0-.14.05-.17c.06-.03.14,0,.17.06s0,.14-.06.17h0Z"/>
        <path class="cls-5" d="m116.76,49.07c-.15.08-.34.02-.42-.14-.08-.15-.02-.34.14-.42.15-.08.34-.02.42.14.08.15.01.34-.14.42Z"/>
        <path class="cls-5" d="m116.8,49.15c-.2.1-.44.02-.54-.18s-.02-.44.18-.54c.2-.1.44-.02.54.18s.02.44-.18.54Z"/>
        <path class="cls-5" d="m106.67,37.18c-.18.09-.41.02-.5-.17-.09-.18-.02-.41.16-.5s.41-.02.5.17c.09.18.02.41-.16.5Z"/>
        <path class="cls-5" d="m116.69,35.47c-.13.07-.29,0-.35-.12-.06-.13-.01-.29.12-.35.13-.06.29,0,.35.12.06.13.01.29-.12.35Z"/>
        <path class="cls-5" d="m109.83,52.73c-.08.04-.19,0-.23-.08-.04-.09,0-.19.08-.23s.19,0,.23.08,0,.19-.08.23Z"/>
        <path class="cls-5" d="m101.22,49.19c-.1.05-.23,0-.28-.09-.05-.1-.01-.23.09-.28s.23,0,.28.09c.05.1.01.23-.09.28Z"/>
        <path class="cls-5" d="m106.63,37.1c-.13.07-.3,0-.37-.12-.07-.13-.01-.3.12-.37.13-.07.3,0,.37.12.07.14.01.3-.12.37Z"/>
        <path class="cls-5" d="m109.84,52.74c-.09.04-.2,0-.25-.08-.05-.09,0-.2.08-.25.09-.04.2,0,.25.08.04.09,0,.2-.08.25Z"/>
        <path class="cls-5" d="m116.82,49.19c-.22.11-.49.02-.59-.2-.11-.22-.02-.49.2-.6s.49-.02.6.2.02.49-.2.6h-.01Z"/>
        <path class="cls-5" d="m116.73,49c-.12.06-.26,0-.32-.11s-.01-.26.11-.32.26,0,.32.11.01.26-.11.32Z"/>
        <path class="cls-5" d="m106.61,37.06c-.12.06-.26,0-.32-.11s-.01-.26.1-.32c.12-.06.26,0,.32.11s.01.26-.1.32Z"/>
        <path class="cls-5" d="m109.92,52.9c-.18.09-.4.02-.49-.16s-.02-.4.16-.49.4-.02.49.16.02.4-.16.49Z"/>
        <path class="cls-5" d="m120,6.1s-.09,0-.13.02c-.11.05-.15.18-.1.29.04.09.14.13.23.11,0,0,0-.42,0-.42Z"/>
        <path class="cls-5" d="m120,5.94c-.07,0-.14,0-.2.04-.18.09-.26.32-.17.5.07.14.22.22.37.2,0,0,0-.74,0-.74Z"/>
        <path class="cls-5" d="m120,5.99c-.06,0-.12,0-.18.03-.16.08-.22.28-.14.43.06.12.2.19.33.18v-.64h-.01Z"/>
        <path class="cls-5" d="m120,6.08s-.09,0-.14.02c-.11.06-.16.2-.1.31.05.09.15.14.24.12v-.45Z"/>
        <path class="cls-5" d="m104.1,15.06c-.19.09-.41.02-.51-.17-.09-.19-.02-.41.17-.51.19-.09.41-.02.51.17.09.19.02.41-.17.51Z"/>
        <path class="cls-5" d="m120,6.05c-.05,0-.1,0-.15.02-.13.06-.18.22-.12.35.05.1.16.15.27.14,0,0,0-.51,0-.51Z"/>
        <path class="cls-5" d="m118.08,18.26c-.11.06-.25.01-.3-.1-.06-.11-.01-.25.1-.3.11-.06.25-.01.3.1.06.11.01.25-.1.3Z"/>
        <path class="cls-5" d="m118.11,18.32c-.14.07-.32.01-.39-.13s-.01-.32.13-.39.32-.01.39.13.01.32-.13.39Z"/>
        <path class="cls-5" d="m104.12,15.1c-.2.1-.45.02-.56-.18-.1-.21-.02-.45.18-.56.2-.1.45-.02.56.18.1.21.02.46-.18.56Z"/>
        <path class="cls-5" d="m114.77,25.81c-.13.06-.29.01-.35-.12-.07-.13-.01-.29.12-.35.13-.07.29-.01.35.12.07.13.01.29-.12.35Z"/>
        <path class="cls-5" d="m104.62,20.82c-.12.06-.27.01-.33-.11-.06-.12-.01-.27.11-.33s.27-.01.33.11c.06.12.01.27-.11.33Z"/>
        <path class="cls-5" d="m104.11,15.07c-.19.09-.42.02-.51-.17-.09-.19-.02-.42.17-.51.19-.09.42-.02.51.17.09.19.02.42-.17.51Z"/>
        <path class="cls-5" d="m114.76,25.78c-.12.06-.26.01-.32-.11s-.01-.26.11-.32.26-.01.32.11.01.26-.11.32Z"/>
        <path class="cls-5" d="m118.11,18.33c-.15.07-.33.01-.41-.13-.07-.15-.01-.33.13-.41.15-.08.33-.02.4.13s.01.33-.13.41h.01Z"/>
        <path class="cls-5" d="m118.08,18.26c-.11.06-.25.01-.3-.1-.06-.11-.01-.25.1-.3.11-.06.25-.01.3.1.06.11.01.25-.1.3Z"/>
        <path class="cls-5" d="m104.09,15.03c-.17.09-.37.02-.46-.15-.08-.17-.02-.38.15-.46.17-.09.37-.02.46.15.08.17.02.38-.15.46Z"/>
        <path class="cls-5" d="m114.75,25.78c-.11.06-.25.01-.31-.1-.06-.12-.01-.26.1-.31.12-.06.25-.01.31.1.06.12.01.25-.1.31Z"/>
        <path class="cls-5" d="m114.78,25.84c-.15.08-.33.02-.41-.14-.08-.15-.01-.34.14-.41.15-.08.33-.02.41.14.08.15.01.34-.14.41Z"/>
        <path class="cls-5" d="m104.64,20.84c-.13.07-.3.01-.37-.12-.07-.13-.01-.3.12-.37.13-.07.3-.01.37.12.07.13.01.3-.12.37Z"/>
        <path class="cls-5" d="m101.44,29.29c-.12.06-.27.01-.33-.11-.06-.12-.01-.27.11-.33s.27-.01.33.11c.06.12.01.27-.11.33Z"/>
        <path class="cls-5" d="m114.76,25.8c-.12.06-.28.01-.34-.11-.06-.13-.01-.28.11-.34.13-.06.28-.01.34.11.06.13.01.28-.11.34Z"/>
        <path class="cls-5" d="m110.98,29.48c-.08.04-.19,0-.23-.08s0-.19.08-.23c.08-.04.19,0,.23.08.04.09,0,.19-.08.23Z"/>
        <path class="cls-5" d="m111.06,29.62c-.16.08-.36.02-.45-.15-.08-.16-.02-.36.15-.45.16-.08.36-.02.45.15.08.16.02.36-.15.45Z"/>
        <path class="cls-5" d="m101.51,29.44c-.21.1-.46.02-.56-.19-.1-.21-.02-.46.18-.56.21-.1.46-.02.56.19.1.21.02.46-.18.56Z"/>
        <path class="cls-5" d="m114.76,25.79c-.12.06-.27.01-.33-.11-.06-.12-.01-.27.11-.33s.27-.01.33.11c.06.12.01.27-.11.33Z"/>
        <path class="cls-5" d="m106.61,37.05c-.11.06-.24,0-.3-.1-.05-.11-.01-.24.1-.3.11-.05.24,0,.3.1.06.11.01.24-.1.3Z"/>
        <path class="cls-5" d="m100.62,40.93c-.12.06-.25,0-.31-.1-.06-.12-.01-.25.1-.31s.25,0,.31.1c.06.12.01.26-.1.31Z"/>
        <path class="cls-5" d="m101.5,29.41c-.19.1-.42.02-.51-.17-.09-.19-.02-.42.17-.52.19-.1.42-.02.51.17.09.19.02.42-.17.52Z"/>
        <path class="cls-5" d="m106.6,37.04c-.1.05-.23,0-.28-.09-.05-.1,0-.23.09-.28.1-.05.23,0,.28.09.05.1,0,.23-.09.28Z"/>
        <path class="cls-5" d="m111.06,29.64c-.17.09-.38.02-.47-.16-.09-.17-.02-.39.16-.47.17-.09.38-.02.47.16.09.17.02.39-.16.47Z"/>
        <path class="cls-5" d="m111.05,29.62c-.16.08-.35.02-.43-.14s-.02-.35.14-.43c.16-.08.35-.02.43.14s.02.35-.14.43Z"/>
        <path class="cls-5" d="m101.44,29.3c-.13.06-.28.01-.35-.12-.06-.13-.01-.28.12-.35.13-.06.28-.01.35.12.06.13.01.28-.12.35Z"/>
        <path class="cls-5" d="m106.6,37.03c-.1.05-.21,0-.26-.09-.05-.1,0-.22.09-.26s.21,0,.26.09c.05.1,0,.21-.09.26Z"/>
        <path class="cls-5" d="m106.65,37.13c-.16.08-.35.02-.42-.14-.08-.16-.02-.35.14-.43.16-.08.35-.02.42.14.08.16.02.35-.14.43Z"/>
        <path class="cls-5" d="m100.61,40.9c-.1.05-.23,0-.28-.09-.05-.1-.01-.23.09-.28s.23,0,.28.09c.05.1.01.23-.09.28Z"/>
        <path class="cls-5" d="m94.04,49.94c-.09.05-.2,0-.25-.08-.05-.09,0-.2.08-.25.09-.05.2,0,.25.08.04.09,0,.2-.08.25Z"/>
        <path class="cls-5" d="m106.62,37.08c-.13.06-.28,0-.34-.11-.06-.13-.01-.28.11-.34.13-.06.28,0,.34.11.06.13.01.28-.11.34Z"/>
        <path class="cls-5" d="m101.21,49.16c-.09.04-.19,0-.23-.08s0-.19.08-.23.19,0,.23.08,0,.19-.08.23Z"/>
        <path class="cls-5" d="m101.29,49.32c-.18.09-.39.02-.48-.16-.09-.18-.02-.39.16-.48s.39-.02.48.16c.09.18.02.39-.16.48Z"/>
        <path class="cls-5" d="m94.1,50.05c-.15.08-.34.02-.42-.14s-.02-.34.14-.42c.15-.08.34,0,.42.14.08.16.01.34-.14.42Z"/>
        <path class="cls-5" d="m106.61,37.06c-.11.06-.25,0-.31-.1-.06-.12-.01-.25.1-.31.12-.06.25,0,.31.1s.01.25-.1.31Z"/>
        <path class="cls-5" d="m103.43,3.45c-.15.07-.33,0-.4-.13-.07-.15-.01-.33.13-.4.15-.07.33,0,.4.13.07.15.01.33-.13.4Z"/>
        <path class="cls-5" d="m103.39,3.37c-.1.05-.22,0-.28-.09-.05-.1-.01-.23.09-.28s.22,0,.28.09c.05.1.01.23-.09.28Z"/>
        <path class="cls-5" d="m104.13,15.12c-.22.11-.48.02-.59-.2-.11-.22-.02-.48.2-.59.22-.11.48-.02.59.2.11.22.02.48-.2.59Z"/>
        <path class="cls-5" d="m96.47,5.52c-.13.07-.29.01-.36-.12s-.01-.29.12-.36c.13-.07.29-.01.36.12s.01.29-.12.36Z"/>
        <path class="cls-5" d="m103.44,3.45c-.15.08-.33.02-.41-.14-.08-.15-.01-.33.13-.41s.33,0,.41.14.01.33-.13.41Z"/>
        <path class="cls-5" d="m104.04,14.93c-.11.06-.25.01-.3-.1-.06-.11-.01-.25.1-.3.11-.06.25-.01.3.1.06.11.01.25-.1.3Z"/>
        <path class="cls-5" d="m103.42,3.42c-.13.06-.28,0-.35-.12-.06-.13-.01-.28.12-.35.13-.06.28,0,.35.12.06.13.01.28-.12.35Z"/>
        <path class="cls-5" d="m104.06,14.98c-.14.07-.3.01-.37-.12-.07-.14-.01-.31.12-.37.14-.07.3-.01.37.12.07.14.01.31-.12.37Z"/>
        <path class="cls-5" d="m104.05,14.95c-.12.06-.28.01-.34-.11s-.01-.28.11-.34.27-.01.34.11c.06.12.01.28-.11.34Z"/>
        <path class="cls-5" d="m96.54,5.65c-.2.1-.45.02-.56-.18-.1-.2-.02-.45.18-.56.21-.1.45-.02.56.18.1.21.02.46-.18.56Z"/>
        <path class="cls-5" d="m99.33,14.62c-.18.09-.39.02-.48-.16-.09-.18-.02-.39.16-.48.18-.09.39-.02.48.16.09.18.02.39-.16.48Z"/>
        <path class="cls-5" d="m104.07,15c-.15.08-.33.02-.41-.13-.08-.15-.01-.33.13-.41.15-.08.33-.01.41.13.07.15.01.33-.13.41Z"/>
        <path class="cls-5" d="m104.61,20.78c-.1.05-.22,0-.27-.09s0-.22.09-.27c.1-.05.22-.01.27.09.05.1,0,.22-.09.27Z"/>
        <path class="cls-5" d="m104.64,20.84c-.13.07-.3.01-.36-.12-.07-.13-.01-.3.12-.36.13-.07.29-.01.36.12.07.13.01.3-.12.36Z"/>
        <path class="cls-5" d="m99.36,14.66c-.2.1-.45.02-.55-.18-.1-.2-.02-.45.18-.55s.45-.02.55.18c.1.2.02.45-.18.55Z"/>
        <path class="cls-5" d="m104.04,14.93c-.11.06-.25.01-.31-.1-.06-.11-.01-.25.1-.31s.25-.01.31.1c.06.11.01.25-.1.31Z"/>
        <path class="cls-5" d="m101.52,29.46c-.22.11-.48.02-.59-.2-.11-.22-.02-.48.19-.59.22-.11.48-.02.59.2.11.22.02.48-.19.59Z"/>
        <path class="cls-5" d="m93.22,26.74c-.08.04-.17,0-.21-.07-.04-.08,0-.17.07-.21.08-.04.17,0,.21.07.04.08,0,.17-.07.21Z"/>
        <path class="cls-5" d="m99.29,14.54c-.13.07-.3.01-.37-.12-.07-.14-.01-.3.12-.37.14-.07.3-.01.37.12.07.14.01.3-.12.37Z"/>
        <path class="cls-5" d="m101.51,29.43c-.2.1-.44.02-.54-.18s-.02-.44.18-.54.44-.02.54.18.02.44-.18.54Z"/>
        <path class="cls-5" d="m104.7,20.97c-.2.1-.45.02-.55-.18-.1-.2-.02-.45.18-.55.2-.1.45-.02.55.18.1.2.02.45-.18.55Z"/>
        <path class="cls-5" d="m104.67,20.91c-.17.09-.38.02-.47-.16-.09-.17-.02-.38.16-.47.17-.09.38-.02.47.16.09.17.02.38-.15.47h-.01Z"/>
        <path class="cls-5" d="m99.29,14.53c-.13.07-.29.01-.36-.12s-.01-.29.12-.36c.13-.07.29-.01.36.12s.01.29-.12.36Z"/>
        <path class="cls-5" d="m101.46,29.35c-.15.08-.34.02-.41-.14-.08-.15-.01-.34.14-.41.15-.08.34-.02.41.14.08.15.02.34-.14.41Z"/>
        <path class="cls-5" d="m101.47,29.36c-.16.08-.36.02-.44-.15-.08-.16-.02-.36.15-.44.16-.08.36-.02.44.15.08.16.02.36-.15.44Z"/>
        <path class="cls-5" d="m93.28,26.85c-.14.07-.31.01-.38-.13s-.01-.31.12-.38c.14-.07.31-.01.38.13s.01.31-.13.38h0Z"/>
        <path class="cls-5" d="m88.69,33.55c-.09.04-.19,0-.23-.08-.04-.09,0-.19.08-.23.09-.04.19,0,.23.08.04.09,0,.19-.08.23Z"/>
        <path class="cls-5" d="m101.46,29.34c-.15.07-.33.02-.4-.13-.08-.15-.01-.33.13-.4.15-.07.33-.02.4.13s.01.33-.13.4Z"/>
        <path class="cls-5" d="m100.68,41.03c-.17.09-.39.02-.47-.16-.09-.17-.02-.39.16-.47.17-.09.39-.02.47.16.09.17.02.39-.16.47Z"/>
        <path class="cls-5" d="m100.62,40.93c-.12.06-.26,0-.32-.11s-.01-.26.11-.32.26,0,.32.11.01.26-.11.32Z"/>
        <path class="cls-5" d="m88.69,33.55c-.09.05-.2,0-.24-.08-.04-.09,0-.2.08-.24s.2,0,.24.08c.04.09,0,.2-.08.24Z"/>
        <path class="cls-5" d="m101.56,29.53c-.26.13-.57.03-.7-.23s-.03-.57.23-.7c.25-.13.57-.03.69.23.13.26.03.57-.23.7h0Z"/>
        <path class="cls-5" d="m94.06,49.98c-.11.06-.25,0-.3-.1-.06-.11-.01-.25.1-.31s.25,0,.3.1c.06.11.01.25-.1.3h0Z"/>
        <path class="cls-5" d="m89.9,40.67c-.1.05-.23,0-.28-.09-.05-.1,0-.23.09-.28.1-.05.23,0,.28.09.05.1.01.23-.09.28Z"/>
        <path class="cls-5" d="m88.76,33.7c-.17.08-.37.02-.46-.15-.08-.17-.02-.38.15-.46.17-.08.37-.02.46.15.08.17.02.38-.15.46Z"/>
        <path class="cls-5" d="m94.04,49.94c-.09.04-.2,0-.25-.08-.04-.09,0-.2.08-.25.09-.05.2,0,.25.08.05.09,0,.2-.08.25Z"/>
        <path class="cls-5" d="m100.67,41.03c-.17.09-.38.02-.46-.15-.09-.17-.02-.38.15-.46s.38-.02.46.15c.09.17.02.38-.15.47h0Z"/>
        <path class="cls-5" d="m100.64,40.97c-.14.07-.31,0-.38-.12-.07-.14-.01-.31.12-.38.14-.07.31,0,.38.12.07.14.01.31-.12.38Z"/>
        <path class="cls-5" d="m88.7,33.56c-.09.05-.21,0-.25-.08-.05-.09,0-.21.08-.25.09-.05.21,0,.25.08.05.09,0,.21-.08.25Z"/>
        <path class="cls-5" d="m94.06,49.98c-.11.06-.25,0-.3-.1-.06-.11-.01-.25.1-.3.11-.06.25,0,.3.1.06.11.01.25-.1.3Z"/>
        <path class="cls-5" d="m103.46,3.5c-.17.09-.39.02-.47-.16-.09-.17-.02-.39.16-.47.17-.09.39-.02.47.16.09.17.02.39-.16.47Z"/>
        <path class="cls-5" d="m103.41,3.4c-.12.06-.26,0-.33-.11-.06-.12-.01-.27.11-.33s.26,0,.33.11c.06.12.01.27-.11.33Z"/>
        <path class="cls-5" d="m103.45,3.48c-.16.08-.37.02-.45-.15-.08-.16-.02-.37.15-.45.17-.08.37-.02.45.15.08.16.02.37-.15.45Z"/>
        <path class="cls-5" d="m103.49,3.57c-.21.11-.47.02-.58-.19s-.02-.47.19-.58.47-.02.58.19.02.47-.19.58Z"/>
        <path class="cls-5" d="m87.34,7.84c-.11.06-.25.01-.3-.1-.06-.11-.01-.25.1-.3.11-.06.25-.01.3.1.06.11.01.25-.1.3Z"/>
        <path class="cls-5" d="m103.37,3.33c-.08.04-.18,0-.22-.07-.04-.08,0-.18.07-.22.08-.04.18,0,.22.07.04.08,0,.18-.07.22Z"/>
        <path class="cls-5" d="m99.24,14.44c-.08.04-.17,0-.21-.07-.04-.08,0-.17.07-.21.08-.04.17,0,.21.07.04.08,0,.17-.07.21Z"/>
        <path class="cls-5" d="m86.51,11.37c-.09.05-.2,0-.25-.08s0-.2.08-.25c.09-.05.2,0,.25.08.05.09,0,.2-.08.25Z"/>
        <path class="cls-5" d="m87.37,7.9c-.15.07-.32.01-.4-.13-.07-.15-.01-.32.13-.4.15-.07.32-.01.4.13.07.15.01.32-.13.4Z"/>
        <path class="cls-5" d="m99.26,14.47c-.1.05-.21,0-.26-.09-.05-.1,0-.21.09-.26s.21,0,.26.09,0,.21-.08.26h0Z"/>
        <path class="cls-5" d="m96.52,5.61c-.18.09-.4.02-.49-.16s-.02-.4.16-.49.4-.02.49.16.02.4-.16.49Z"/>
        <path class="cls-5" d="m96.46,5.49c-.12.06-.26.01-.32-.11-.06-.12-.01-.26.11-.32.12-.06.26-.01.32.11.06.12.01.26-.11.32Z"/>
        <path class="cls-5" d="m87.47,8.11c-.26.13-.57.03-.7-.23s-.03-.57.23-.7c.26-.13.57-.03.7.23s.03.57-.23.7Z"/>
        <path class="cls-5" d="m99.29,14.53c-.13.06-.28.01-.35-.12-.06-.13-.01-.28.11-.35.13-.06.28-.01.35.12.06.13.01.28-.11.35Z"/>
        <path class="cls-5" d="m99.33,14.62c-.18.09-.39.02-.48-.16-.09-.18-.02-.39.16-.48.18-.09.39-.02.48.16.09.18.02.39-.16.48Z"/>
        <path class="cls-5" d="m86.56,11.47c-.15.08-.33.01-.41-.13-.08-.15-.01-.33.13-.41.15-.07.33-.01.41.13.08.15.01.33-.13.41Z"/>
        <path class="cls-5" d="m81.59,25.4c-.11.06-.24.01-.3-.1-.05-.11-.01-.24.1-.3s.24-.01.3.1c.06.11.01.24-.1.3Z"/>
        <path class="cls-5" d="m99.31,14.58c-.16.08-.34.02-.42-.14-.08-.16-.02-.34.14-.42.15-.08.34-.02.42.14.08.16.01.34-.14.42Z"/>
        <path class="cls-5" d="m93.25,26.78c-.1.05-.23.01-.28-.09-.05-.1,0-.23.09-.28.1-.05.23-.01.28.09.05.1,0,.23-.09.28Z"/>
        <path class="cls-5" d="m93.35,27c-.22.11-.49.02-.6-.2-.11-.22-.02-.49.2-.6.22-.11.49-.02.6.2.11.22.02.49-.2.6Z"/>
        <path class="cls-5" d="m81.65,25.51c-.17.09-.39.02-.48-.16-.09-.18-.02-.39.16-.48s.39-.02.48.16.02.39-.16.48Z"/>
        <path class="cls-5" d="m99.29,14.53c-.13.07-.29.01-.35-.12-.07-.13-.01-.29.12-.35.13-.06.29-.01.35.12s.01.29-.12.35Z"/>
        <path class="cls-5" d="m88.81,33.79c-.22.11-.48.02-.59-.2-.11-.22-.02-.49.2-.59.22-.11.48-.02.59.2.11.22.02.49-.2.6h0Z"/>
        <path class="cls-5" d="m83.88,33.38c-.14.07-.31,0-.38-.13s-.01-.31.13-.38.31,0,.38.13.01.31-.13.38Z"/>
        <path class="cls-5" d="m81.62,25.46c-.14.07-.32.01-.39-.13-.07-.15-.01-.32.13-.39.15-.07.32-.01.39.13s.01.32-.13.39Z"/>
        <path class="cls-5" d="m88.69,33.55c-.09.05-.2,0-.24-.08-.04-.09,0-.2.08-.24.09-.04.2,0,.24.08.04.09,0,.2-.08.24Z"/>
        <path class="cls-5" d="m93.31,26.91c-.17.09-.39.02-.47-.16-.09-.17-.02-.39.16-.48.17-.09.39-.02.47.16.09.17.02.39-.16.48Z"/>
        <path class="cls-5" d="m93.23,26.76c-.09.04-.19,0-.24-.08-.04-.09,0-.19.08-.24.09-.04.19,0,.24.08.04.09,0,.19-.08.24Z"/>
        <path class="cls-5" d="m81.6,25.43c-.13.06-.28.01-.34-.11-.06-.13-.01-.28.11-.35.13-.06.28-.01.34.11.06.13.01.28-.11.35Z"/>
        <path class="cls-5" d="m88.7,33.58c-.1.05-.22,0-.28-.09-.05-.1-.01-.23.09-.28s.22,0,.28.09c.05.1.01.22-.09.28Z"/>
        <path class="cls-5" d="m88.74,33.65c-.14.07-.31,0-.39-.13-.07-.14-.01-.32.13-.39s.31,0,.39.13c.07.14.01.32-.13.39Z"/>
        <path class="cls-5" d="m83.96,33.53c-.22.11-.49.02-.6-.2s-.02-.49.2-.6.49-.02.6.2.02.49-.2.6Z"/>
        <path class="cls-5" d="m79.04,39.59c-.13.07-.29,0-.36-.12-.07-.13-.01-.29.12-.36.13-.07.29,0,.36.12.07.13.01.29-.12.36Z"/>
        <path class="cls-5" d="m88.68,33.54c-.08.04-.18,0-.22-.07-.04-.08,0-.18.07-.22.08-.04.18,0,.22.07.04.08,0,.18-.07.22Z"/>
        <path class="cls-5" d="m90.02,40.9c-.23.11-.5.02-.61-.2-.11-.23-.02-.5.2-.62.23-.11.5-.02.62.2.11.23.02.5-.2.62h-.01Z"/>
        <path class="cls-5" d="m89.94,40.74c-.14.07-.31,0-.38-.13s-.01-.31.13-.38.31,0,.38.13.01.31-.13.38Z"/>
        <path class="cls-5" d="m79.06,39.63c-.15.08-.33,0-.41-.14-.08-.15-.01-.34.14-.41.15-.08.33,0,.41.14.08.15.01.34-.14.41Z"/>
        <path class="cls-5" d="m88.77,33.71c-.18.09-.39.02-.48-.16-.09-.18-.02-.39.16-.48s.39-.02.48.16c.09.18.02.39-.16.48Z"/>
        <path class="cls-5" d="m87.38,7.92c-.16.08-.34.02-.42-.14s-.02-.35.14-.42c.16-.08.34-.02.42.14s.02.35-.14.42Z"/>
        <path class="cls-5" d="m87.41,7.98c-.19.1-.42.02-.52-.17-.09-.19-.02-.42.17-.52.19-.1.42-.02.52.17.09.19.02.42-.17.52Z"/>
        <path class="cls-5" d="m82.27,10.61c-.17.09-.39.02-.48-.16-.09-.18-.02-.39.16-.48.18-.09.39-.02.48.16.09.18.02.39-.16.48Z"/>
        <path class="cls-5" d="m87.37,7.9c-.14.07-.32.01-.39-.13-.07-.14-.01-.32.13-.39.14-.07.32-.01.39.13.07.14.01.32-.13.39Z"/>
        <path class="cls-5" d="m86.59,11.54c-.18.09-.4.02-.5-.17-.09-.18-.02-.41.16-.5s.41-.02.5.16.02.41-.16.5h0Z"/>
        <path class="cls-5" d="m86.56,11.46c-.14.07-.32.01-.39-.13s-.01-.32.13-.39c.14-.07.32-.01.39.13s.01.32-.13.39Z"/>
        <path class="cls-5" d="m82.22,10.53c-.13.07-.29.01-.35-.12s-.01-.29.12-.35c.13-.07.29-.01.35.12.07.13.01.29-.12.35Z"/>
        <path class="cls-5" d="m87.33,7.83c-.1.05-.23.01-.28-.09-.05-.1-.01-.23.09-.28s.23-.01.28.09c.05.1,0,.23-.09.28Z"/>
        <path class="cls-5" d="m81.62,25.45c-.14.07-.32.01-.39-.13s-.01-.32.13-.39.32-.01.39.13.01.32-.13.39Z"/>
        <path class="cls-5" d="m78.67,17.41c-.14.07-.31.01-.37-.12-.07-.14-.01-.31.12-.38.14-.07.3-.01.37.12.07.14.01.31-.12.38Z"/>
        <path class="cls-5" d="m82.23,10.54c-.14.07-.3.01-.37-.12-.07-.14-.01-.3.12-.37.14-.07.3-.01.37.12.07.14.01.3-.12.37Z"/>
        <path class="cls-5" d="m81.7,25.61c-.23.11-.5.02-.62-.21-.11-.23-.02-.51.21-.62.23-.11.5-.02.62.21.11.23.02.5-.2.62h-.01Z"/>
        <path class="cls-5" d="m86.54,11.42c-.12.06-.26.01-.32-.11s-.01-.27.11-.33c.12-.06.26-.01.32.11s.01.27-.11.33Z"/>
        <path class="cls-5" d="m86.58,11.51c-.17.08-.37.02-.46-.15-.08-.17-.02-.37.15-.46.17-.08.37-.02.45.15s.02.37-.15.46h.01Z"/>
        <path class="cls-5" d="m82.2,10.48c-.1.05-.23.01-.29-.09-.05-.1-.01-.23.09-.29.1-.05.23-.01.29.09.05.1,0,.23-.09.29Z"/>
        <path class="cls-5" d="m81.58,25.38c-.1.05-.23.01-.28-.09-.05-.1,0-.23.09-.28.1-.05.23-.01.28.09.05.1,0,.23-.09.28Z"/>
        <path class="cls-5" d="m83.82,33.25c-.07.03-.15,0-.19-.06-.03-.07,0-.15.06-.19.07-.03.15,0,.19.06.03.07,0,.15-.06.19Z"/>
        <path class="cls-5" d="m83.84,33.29c-.09.05-.2,0-.25-.08-.04-.09,0-.2.08-.25.09-.05.2,0,.25.08.05.09,0,.2-.08.25Z"/>
        <path class="cls-5" d="m69.6,27.77c-.1.05-.23.01-.28-.09-.05-.1-.01-.23.09-.29.1-.05.23-.01.28.09.05.1,0,.23-.09.28h0Z"/>
        <path class="cls-5" d="m81.61,25.44c-.14.07-.3.01-.37-.12-.07-.14-.01-.3.12-.37.14-.07.3-.01.37.12.07.14.01.3-.12.37Z"/>
        <path class="cls-5" d="m79.11,39.73c-.21.1-.46.02-.56-.19s-.02-.46.19-.57.46-.02.57.19c.1.21.02.46-.19.57h-.01Z"/>
        <path class="cls-5" d="m65.76,40.05c-.14.07-.31,0-.37-.12-.07-.14-.01-.31.12-.38.14-.07.3,0,.37.12.07.14.01.31-.12.38Z"/>
        <path class="cls-5" d="m69.61,27.8c-.12.06-.27.01-.33-.11-.06-.12-.01-.27.11-.33s.27-.01.33.11c.06.12.01.27-.11.33Z"/>
        <path class="cls-5" d="m79.03,39.56c-.12.06-.25,0-.31-.1s-.01-.25.1-.31c.12-.06.25,0,.31.1.06.12.01.25-.1.31Z"/>
        <path class="cls-5" d="m83.84,33.29c-.09.04-.2,0-.25-.08-.04-.09,0-.2.08-.25.09-.05.2,0,.25.08.04.09,0,.2-.08.25Z"/>
        <path class="cls-5" d="m83.87,33.36c-.13.06-.28,0-.35-.12-.06-.13-.01-.29.12-.35.13-.06.28,0,.35.12.06.13.01.28-.12.35Z"/>
        <path class="cls-5" d="m69.64,27.86c-.15.08-.34.02-.42-.14-.08-.15-.01-.34.14-.42s.34-.02.42.14c.08.15.02.34-.14.42Z"/>
        <path class="cls-5" d="m79.01,39.53c-.1.05-.21,0-.26-.09-.05-.1,0-.21.09-.26.1-.05.21,0,.26.09.05.1,0,.21-.09.26Z"/>
        <path class="cls-5" d="m78.79,17.63c-.26.13-.57.03-.71-.23-.13-.26-.03-.58.23-.71s.58-.03.71.23.03.58-.23.71Z"/>
        <path class="cls-5" d="m78.68,17.42c-.14.07-.32.01-.39-.13s-.01-.32.13-.39.32-.01.39.13.01.32-.13.39Z"/>
        <path class="cls-5" d="m68.88,13.28c-.15.08-.33.01-.41-.14s-.01-.33.13-.41.33-.02.41.13c.08.15.01.33-.13.41h0Z"/>
        <path class="cls-5" d="m82.17,10.42c-.07.03-.15,0-.19-.06-.03-.07,0-.15.06-.19.07-.03.15,0,.19.06.03.07,0,.15-.06.19Z"/>
        <path class="cls-5" d="m65.74,40.01c-.12.06-.25,0-.31-.1-.06-.12-.01-.25.1-.31.12-.06.25,0,.31.1.06.12.01.25-.1.31Z"/>
        <path class="cls-5" d="m65.72,39.97c-.09.05-.2,0-.25-.08-.05-.09,0-.21.08-.25.09-.05.2,0,.25.08.05.09,0,.2-.08.25Z"/>
        <path class="cls-5" d="m56.54,36.79c-.13.07-.29,0-.36-.12-.07-.13,0-.29.12-.36.13-.07.29,0,.36.12.07.13,0,.29-.12.36Z"/>
        <path class="cls-5" d="m69.62,27.82c-.13.07-.3.01-.36-.12-.07-.13-.01-.3.12-.37.13-.07.3-.01.37.12.07.13.01.3-.12.37h-.01Z"/>
      </g>
    </g>
    <g>
      <polygon class="cls-1" points="113.95 0 114.16 12.38 102.85 0 102.8 0 114.21 12.49 113.99 0 113.95 0"/>
      <polygon class="cls-1" points="120 5.45 114.2 12.38 113.99 0 113.95 0 114.16 12.44 114.17 12.49 120 5.51 120 5.45"/>
      <polygon class="cls-1" points="120 14.65 114.25 12.44 120 10.56 120 10.51 114.12 12.43 120 14.7 120 14.65"/>
      <polygon class="cls-1" points="120 10.51 114.25 12.39 120 5.51 120 5.45 114.17 12.42 114.12 12.48 120 10.56 120 10.51"/>
      <polygon class="cls-1" points="94.55 0 94.14 .78 93.45 0 93.39 0 94.13 .83 94.15 .85 94.6 0 94.55 0"/>
      <polygon class="cls-1" points="99.78 0 101.91 7.04 94.17 .81 94.6 0 94.55 0 94.13 .81 94.12 .82 101.94 7.11 101.99 7.15 99.82 0 99.78 0"/>
      <polygon class="cls-1" points="101.05 0 101.9 6.87 99.82 0 99.78 0 101.93 7.1 101.97 7.1 101.09 0 101.05 0"/>
      <path class="cls-1" d="m100.48,15.41v-.03l1.46-8.31h.02l12.29,5.37h-.06l-13.71,2.97Zm1.49-8.29l-1.44,8.23,13.59-2.93s-12.15-5.3-12.15-5.3Z"/>
      <polygon class="cls-1" points="102.8 0 114.11 12.38 101.97 7.08 101.09 0 101.05 0 101.93 7.1 101.93 7.11 114.18 12.45 114.2 12.42 102.85 0 102.8 0"/>
      <path class="cls-1" d="m111.28,17.17h-.01l-10.76-1.77v-.04l13.73-2.96-2.95,4.77h0Zm-10.67-1.79l10.65,1.74,2.89-4.66-13.53,2.92h-.01Z"/>
      <polygon class="cls-1" points="120 15 111.31 17.12 114.19 12.46 120 14.7 120 14.65 114.19 12.42 114.18 12.41 111.25 17.14 111.22 17.18 120 15.04 120 15"/>
      <polygon class="cls-1" points="120 28.65 111.32 17.19 120 20.08 120 20.03 111.27 17.13 111.21 17.11 120 28.72 120 28.65"/>
      <polygon class="cls-1" points="120 20.03 111.34 17.15 120 15.04 120 15 111.19 17.15 120 20.08 120 20.03"/>
      <polygon class="cls-1" points="82.6 0 81.11 7.04 72.47 0 72.41 0 81.11 7.09 81.14 7.11 82.64 0 82.6 0"/>
      <polygon class="cls-1" points="93.39 0 94.11 .81 81.16 7.04 82.64 0 82.6 0 81.11 7.07 81.1 7.11 94.15 .83 94.18 .82 93.45 0 93.39 0"/>
      <path class="cls-1" d="m90.55,15.64h-.01l-9.47-8.58h.05l20.88.03-11.46,8.56h.01Zm-9.37-8.55l9.38,8.49,11.33-8.47s-20.71-.02-20.71-.02Z"/>
      <path class="cls-1" d="m102.01,7.12h-.06l-20.82-.02v-.04l13.02-6.26h0l7.85,6.33h0Zm-20.79-.07l20.68.02-7.75-6.24-12.93,6.21h0Z"/>
      <path class="cls-1" d="m98.21,26.11l-.03-.04-7.66-10.47,11.45-8.56v.05l-3.77,19.01h0Zm-7.63-10.49l7.61,10.4,3.73-18.87s-11.34,8.47-11.34,8.47Z"/>
      <path class="cls-1" d="m101.46,28.78h-.02l-3.28-2.72,13.09-8.93.03.03s-9.82,11.62-9.82,11.62Zm-3.22-2.72l3.22,2.66,9.7-11.47-12.92,8.82h0Z"/>
      <path class="cls-1" d="m98.17,26.11l2.31-10.75h.02l10.81,1.77-.04.03-13.11,8.94h.01Zm2.34-10.69l-2.28,10.61,12.98-8.86s-10.7-1.75-10.7-1.75Z"/>
      <path class="cls-1" d="m113.34,41.2l-11.92-12.44,9.83-11.62h.03v.02l2.06,24.05h0Zm-11.86-12.46l11.81,12.33-2.04-23.89-9.77,11.55h0Z"/>
      <polygon class="cls-1" points="120 30.99 113.33 41.08 111.29 17.22 120 28.72 120 28.65 111.28 17.14 111.24 17.08 113.3 41.14 113.3 41.2 120 31.06 120 30.99"/>
      <polygon class="cls-1" points="120 42.39 113.41 41.14 120 39.44 120 39.4 113.31 41.12 113.31 41.16 120 42.43 120 42.39"/>
      <polygon class="cls-1" points="120 39.4 113.36 41.11 120 31.06 120 30.99 113.3 41.13 113.27 41.17 120 39.44 120 39.4"/>
      <path class="cls-1" d="m77.27,11.28h-.01l-11.96-3.17v-.04l15.87-1.02-3.91,4.23h.01Zm-11.84-3.18l11.82,3.13,3.82-4.14-15.64,1.01Z"/>
      <polygon class="cls-1" points="72.41 0 81.07 7.06 65.36 8.07 72.18 0 72.13 0 65.26 8.12 81.18 7.09 72.47 0 72.41 0"/>
      <path class="cls-1" d="m86.75,22.21l-9.51-10.95h.01l3.88-4.22.02.02,5.64,15.13-.03.02h0Zm-9.46-10.95l9.42,10.84-5.59-14.99s-3.83,4.15-3.83,4.15Z"/>
      <path class="cls-1" d="m86.76,22.25v-.04l-5.65-15.13.03-.02,9.44,8.55h0l-3.81,6.64h-.01Zm-5.59-15.1l5.59,15.01,3.76-6.54-9.35-8.47Z"/>
      <path class="cls-1" d="m98.26,26.1l-.06-.02-11.46-3.87v-.02l3.82-6.62.02.02,7.68,10.5h0Zm-11.46-3.91l11.35,3.84-7.59-10.38s-3.76,6.54-3.76,6.54Z"/>
      <path class="cls-1" d="m98.29,32.79h-.03l-14.03-4.98v-.04l13.99-1.73.07,6.75Zm-13.96-4.99l13.92,4.93-.07-6.64s-13.85,1.71-13.85,1.71Z"/>
      <path class="cls-1" d="m98.25,32.81l-.07-6.79.03.03,3.27,2.7-3.23,4.07h0Zm-.03-6.72l.07,6.59,3.13-3.95-3.21-2.65h.01Z"/>
      <path class="cls-1" d="m113.4,41.16h-.08l-9.83-1.13h0l-5.23-7.26.03-.03s15.11,8.42,15.11,8.42Zm-9.88-1.17l9.71,1.12-14.88-8.29s5.17,7.17,5.17,7.17Z"/>
      <path class="cls-1" d="m113.31,41.16l-15.07-8.39,3.21-4.04.02.02,11.86,12.39-.02.03h0Zm-15-8.42l14.91,8.31-11.75-12.27-3.15,3.97h-.01Z"/>
      <polygon class="cls-1" points="120 45.31 109.59 54.74 113.33 41.16 120 42.43 120 42.39 113.32 41.12 113.3 41.12 109.53 54.8 109.51 54.87 120 45.37 120 45.31"/>
      <polygon class="cls-1" points="114.9 60 109.59 54.82 120 52.59 120 52.55 109.51 54.79 114.84 60 114.9 60"/>
      <polygon class="cls-1" points="120 52.55 109.62 54.77 120 45.37 120 45.31 109.54 54.79 109.48 54.84 120 52.59 120 52.55"/>
      <path class="cls-1" d="m55.42,10.56v-.02l-3.47-7.95,13.42,5.51s-9.95,2.46-9.95,2.46Zm-3.39-7.89l3.41,7.84,9.8-2.42s-13.21-5.42-13.21-5.42Z"/>
      <path class="cls-1" d="m86.81,22.22h-.05l-17.69-1.37.03-.03,8.16-9.6,9.55,10.99h0Zm-17.65-1.39l17.56,1.35-9.45-10.88-8.1,9.53h-.01Z"/>
      <path class="cls-1" d="m94.09,48.08l.02-.06,4.15-15.31.03.03,5.24,7.27h-.01l-9.42,8.07h0Zm4.19-15.28l-4.11,15.16,9.31-7.96-5.19-7.2h0Z"/>
      <polygon class="cls-1" points="110.27 60 109.58 54.86 114.84 60 114.9 60 109.56 54.79 109.52 54.75 110.23 60 110.27 60"/>
      <g>
        <path class="cls-1" d="m114.62,12.44c0,.24-.2.44-.44.44s-.44-.2-.44-.44.2-.44.44-.44.44.2.44.44Z"/>
        <path class="cls-1" d="m114.66,12.44c0,.27-.21.48-.48.48s-.48-.22-.48-.48.21-.48.48-.48.48.21.48.48Z"/>
        <path class="cls-1" d="m114.62,12.44c0,.24-.2.44-.44.44s-.44-.2-.44-.44.2-.44.44-.44.44.2.44.44Z"/>
        <path class="cls-1" d="m114.58,12.44c0,.22-.18.4-.4.4s-.4-.18-.4-.4.18-.4.4-.4.4.18.4.4Z"/>
        <path class="cls-1" d="m94.53.81c0,.21-.17.39-.39.39s-.39-.17-.39-.39.17-.39.39-.39.39.17.39.39Z"/>
        <path class="cls-1" d="m94.32.81c0,.1-.08.18-.18.18s-.18-.08-.18-.18.08-.18.18-.18.18.08.18.18Z"/>
        <path class="cls-1" d="m102.3,7.1c0,.19-.16.35-.35.35s-.35-.16-.35-.35.16-.35.35-.35.35.16.35.35Z"/>
        <path class="cls-1" d="m102.19,7.1c0,.13-.11.24-.24.24s-.24-.11-.24-.24.11-.24.24-.24.24.11.24.24Z"/>
        <path class="cls-1" d="m114.69,12.44c0,.28-.23.51-.51.51s-.51-.23-.51-.51.23-.51.51-.51.51.23.51.51Z"/>
        <path class="cls-1" d="m100.81,15.39c0,.17-.14.31-.31.31s-.31-.14-.31-.31.14-.31.31-.31.31.14.31.31Z"/>
        <path class="cls-1" d="m102.3,7.1c0,.19-.16.35-.35.35s-.35-.16-.35-.35.16-.35.35-.35.35.16.35.35Z"/>
        <path class="cls-1" d="m114.44,12.44c0,.14-.12.26-.26.26s-.26-.12-.26-.26.12-.26.26-.26.26.12.26.26Z"/>
        <path class="cls-1" d="m102.25,7.1c0,.17-.13.3-.3.3s-.3-.13-.3-.3.13-.3.3-.3.3.13.3.3Z"/>
        <path class="cls-1" d="m114.51,12.44c0,.18-.14.32-.32.32s-.32-.14-.32-.32.14-.32.32-.32.32.14.32.32Z"/>
        <path class="cls-1" d="m114.47,12.44c0,.16-.13.29-.29.29s-.29-.13-.29-.29.13-.29.29-.29.29.13.29.29Z"/>
        <path class="cls-1" d="m100.98,15.39c0,.27-.21.48-.48.48s-.48-.21-.48-.48.21-.48.48-.48.48.22.48.48Z"/>
        <path class="cls-1" d="m111.68,17.15c0,.23-.18.41-.41.41s-.41-.19-.41-.41.18-.41.41-.41.41.18.41.41Z"/>
        <path class="cls-1" d="m114.53,12.44c0,.19-.16.35-.35.35s-.35-.16-.35-.35.16-.35.35-.35.35.16.35.35Z"/>
        <path class="cls-1" d="m111.74,17.15c0,.26-.21.48-.48.48s-.48-.21-.48-.48.21-.48.48-.48.48.21.48.48Z"/>
        <path class="cls-1" d="m114.45,12.44c0,.15-.12.27-.27.27s-.27-.12-.27-.27.12-.27.27-.27.27.12.27.27Z"/>
        <path class="cls-1" d="m111.58,17.15c0,.18-.14.32-.32.32s-.32-.14-.32-.32.14-.32.32-.32.32.14.32.32Z"/>
        <path class="cls-1" d="m111.57,17.15c0,.17-.14.31-.31.31s-.31-.14-.31-.31.14-.31.31-.31.31.14.31.31Z"/>
        <path class="cls-1" d="m72.1,0s.1.08.17.08.13-.03.17-.08h-.34Z"/>
        <path class="cls-1" d="m71.92,0c.06.14.19.24.35.24s.29-.1.35-.24h-.7Z"/>
        <path class="cls-1" d="m81.37,7.07c0,.13-.11.24-.24.24s-.24-.11-.24-.24.11-.24.24-.24.24.11.24.24Z"/>
        <path class="cls-1" d="m94.53.81c0,.22-.17.39-.39.39s-.39-.17-.39-.39.17-.39.39-.39.39.17.39.39Z"/>
        <path class="cls-1" d="m94.51.81c0,.2-.16.37-.37.37s-.37-.16-.37-.37.16-.37.37-.37.37.17.37.37Z"/>
        <path class="cls-1" d="m81.62,7.07c0,.27-.22.49-.49.49s-.49-.22-.49-.49.22-.49.49-.49.49.22.49.49Z"/>
        <path class="cls-1" d="m102.36,7.1c0,.23-.18.41-.41.41s-.41-.18-.41-.41.18-.41.41-.41.41.18.41.41Z"/>
        <path class="cls-1" d="m90.84,15.61c0,.16-.13.29-.29.29s-.29-.13-.29-.29.13-.29.29-.29.29.13.29.29Z"/>
        <path class="cls-1" d="m81.41,7.07c0,.15-.12.28-.28.28s-.28-.13-.28-.28.12-.28.28-.28.28.12.28.28Z"/>
        <path class="cls-1" d="m102.23,7.1c0,.15-.13.28-.28.28s-.28-.13-.28-.28.12-.28.28-.28.28.13.28.28Z"/>
        <path class="cls-1" d="m94.61.81c0,.26-.21.47-.46.47s-.46-.21-.46-.47.21-.47.46-.47.46.21.46.47Z"/>
        <path class="cls-1" d="m94.46.81c0,.18-.14.32-.32.32s-.32-.14-.32-.32.14-.32.32-.32.32.14.32.32Z"/>
        <path class="cls-1" d="m81.77,7.07c0,.35-.29.64-.64.64s-.64-.29-.64-.64.29-.64.64-.64.64.29.64.64Z"/>
        <path class="cls-1" d="m102.34,7.1c0,.21-.17.39-.39.39s-.39-.17-.39-.39.17-.39.39-.39.39.17.39.39Z"/>
        <path class="cls-1" d="m102.45,7.1c0,.28-.22.5-.5.5s-.5-.22-.5-.5.22-.5.5-.5.5.22.5.5Z"/>
        <path class="cls-1" d="m90.88,15.61c0,.18-.14.32-.32.32s-.32-.14-.32-.32.14-.32.32-.32.32.14.32.32Z"/>
        <path class="cls-1" d="m98.46,26.06c0,.14-.12.26-.26.26s-.26-.12-.26-.26.12-.26.26-.26.26.12.26.26Z"/>
        <path class="cls-1" d="m102.14,7.1c0,.11-.09.19-.19.19s-.19-.09-.19-.19.08-.19.19-.19.19.09.19.19Z"/>
        <path class="cls-1" d="m111.45,17.15c0,.1-.08.18-.18.18s-.18-.08-.18-.18.08-.18.18-.18.18.08.18.18Z"/>
        <path class="cls-1" d="m101.67,28.75c0,.12-.1.22-.22.22s-.21-.1-.21-.22.1-.22.21-.22.22.1.22.22Z"/>
        <path class="cls-1" d="m98.54,26.06c0,.19-.15.34-.34.34s-.34-.15-.34-.34.15-.34.34-.34.34.15.34.34Z"/>
        <path class="cls-1" d="m111.49,17.15c0,.12-.1.22-.22.22s-.22-.1-.22-.22.1-.22.22-.22.22.1.22.22Z"/>
        <path class="cls-1" d="m100.92,15.39c0,.23-.19.43-.42.43s-.42-.19-.42-.43.19-.43.42-.43.42.19.42.43Z"/>
        <path class="cls-1" d="m100.78,15.39c0,.15-.12.28-.28.28s-.28-.12-.28-.28.12-.28.28-.28.28.12.28.28Z"/>
        <path class="cls-1" d="m98.81,26.06c0,.33-.27.61-.61.61s-.6-.27-.6-.61.27-.61.6-.61.61.27.61.61Z"/>
        <path class="cls-1" d="m111.56,17.15c0,.17-.13.3-.3.3s-.3-.13-.3-.3.13-.3.3-.3.3.13.3.3Z"/>
        <path class="cls-1" d="m111.68,17.15c0,.23-.18.41-.41.41s-.41-.19-.41-.41.18-.41.41-.41.41.19.41.41Z"/>
        <path class="cls-1" d="m101.81,28.75c0,.19-.16.35-.35.35s-.35-.16-.35-.35.16-.35.35-.35.35.16.35.35Z"/>
        <path class="cls-1" d="m113.58,41.14c0,.14-.12.26-.26.26s-.26-.12-.26-.26.12-.26.26-.26.26.12.26.26Z"/>
        <path class="cls-1" d="m111.63,17.15c0,.2-.16.36-.36.36s-.36-.16-.36-.36.16-.36.36-.36.36.16.36.36Z"/>
        <path class="cls-1" d="m113.73,41.14c0,.23-.18.41-.41.41s-.41-.18-.41-.41.18-.41.41-.41.41.18.41.41Z"/>
        <path class="cls-1" d="m111.57,17.15c0,.17-.14.3-.3.3s-.3-.14-.3-.3.14-.3.3-.3.3.14.3.3Z"/>
        <path class="cls-1" d="m113.66,41.14c0,.19-.15.34-.34.34s-.34-.15-.34-.34.15-.34.34-.34.34.15.34.34Z"/>
        <path class="cls-1" d="m113.62,41.14c0,.16-.13.3-.3.3s-.3-.13-.3-.3.13-.3.3-.3.3.13.3.3Z"/>
        <path class="cls-1" d="m81.49,7.07c0,.2-.16.37-.37.37s-.37-.16-.37-.37.16-.37.37-.37.37.16.37.37Z"/>
        <path class="cls-1" d="m77.49,11.26c0,.13-.1.23-.23.23s-.23-.1-.23-.23.1-.23.23-.23.23.1.23.23Z"/>
        <path class="cls-1" d="m65.54,8.09c0,.13-.11.24-.23.24s-.24-.11-.24-.24.11-.24.24-.24.23.11.23.24Z"/>
        <path class="cls-1" d="m81.54,7.07c0,.23-.18.41-.41.41s-.41-.19-.41-.41.18-.41.41-.41.41.18.41.41Z"/>
        <path class="cls-1" d="m71.92,0c.06.14.19.24.35.24s.3-.1.35-.24h-.71.01Z"/>
        <path class="cls-1" d="m65.65,8.09c0,.19-.15.34-.34.34s-.34-.15-.34-.34.15-.34.34-.34.34.15.34.34Z"/>
        <path class="cls-1" d="m81.44,7.07c0,.17-.14.31-.31.31s-.31-.14-.31-.31.14-.31.31-.31.31.14.31.31Z"/>
        <path class="cls-1" d="m81.38,7.07c0,.14-.11.25-.25.25s-.25-.11-.25-.25.11-.25.25-.25.25.11.25.25Z"/>
        <path class="cls-1" d="m77.52,11.26c0,.14-.11.25-.25.25s-.25-.11-.25-.25.11-.25.25-.25.25.11.25.25Z"/>
        <path class="cls-1" d="m87.17,22.2c0,.23-.18.41-.41.41s-.41-.18-.41-.41.18-.41.41-.41.41.18.41.41Z"/>
        <path class="cls-1" d="m81.45,7.07c0,.18-.14.32-.32.32s-.32-.14-.32-.32.14-.32.32-.32.32.14.32.32Z"/>
        <path class="cls-1" d="m90.82,15.61c0,.14-.12.26-.26.26s-.26-.12-.26-.26.12-.26.26-.26.26.12.26.26Z"/>
        <path class="cls-1" d="m90.86,15.61c0,.17-.13.3-.3.3s-.3-.13-.3-.3.13-.3.3-.3.3.13.3.3Z"/>
        <path class="cls-1" d="m86.95,22.2c0,.1-.08.19-.19.19s-.19-.08-.19-.19.08-.19.19-.19.19.08.19.19Z"/>
        <path class="cls-1" d="m81.69,7.07c0,.31-.25.57-.57.57s-.57-.25-.57-.57.25-.57.57-.57.57.25.57.57Z"/>
        <path class="cls-1" d="m90.75,15.61c0,.11-.09.2-.2.2s-.2-.09-.2-.2.09-.2.2-.2.2.09.2.2Z"/>
        <path class="cls-1" d="m90.71,15.61c0,.09-.07.16-.16.16s-.16-.07-.16-.16.07-.16.16-.16.16.07.16.16Z"/>
        <path class="cls-1" d="m87.01,22.2c0,.13-.11.24-.24.24s-.24-.11-.24-.24.11-.24.24-.24.24.11.24.24Z"/>
        <path class="cls-1" d="m98.57,26.06c0,.2-.16.37-.37.37s-.36-.16-.36-.37.16-.37.36-.37.37.16.37.37Z"/>
        <path class="cls-1" d="m98.65,26.06c0,.25-.2.45-.45.45s-.45-.2-.45-.45.2-.45.45-.45.45.2.45.45Z"/>
        <path class="cls-1" d="m84.54,27.79c0,.16-.13.29-.29.29s-.29-.13-.29-.29.13-.29.29-.29.29.13.29.29Z"/>
        <path class="cls-1" d="m98.68,32.76c0,.23-.18.41-.41.41s-.41-.18-.41-.41.18-.41.41-.41.41.18.41.41Z"/>
        <path class="cls-1" d="m98.54,26.06c0,.19-.15.34-.34.34s-.34-.15-.34-.34.15-.34.34-.34.34.15.34.34Z"/>
        <path class="cls-1" d="m101.88,28.75c0,.24-.19.43-.43.43s-.43-.19-.43-.43.19-.43.43-.43.43.19.43.43Z"/>
        <path class="cls-1" d="m101.79,28.75c0,.19-.15.34-.34.34s-.34-.15-.34-.34.15-.34.34-.34.34.15.34.34Z"/>
        <path class="cls-1" d="m98.58,32.76c0,.17-.14.3-.3.3s-.3-.14-.3-.3.14-.3.3-.3.3.14.3.3Z"/>
        <path class="cls-1" d="m98.44,26.06c0,.13-.11.24-.24.24s-.24-.11-.24-.24.11-.24.24-.24.24.11.24.24Z"/>
        <path class="cls-1" d="m113.65,41.14c0,.18-.15.33-.33.33s-.33-.15-.33-.33.15-.33.33-.33.33.15.33.33Z"/>
        <path class="cls-1" d="m103.83,40.01c0,.18-.14.32-.32.32s-.32-.15-.32-.32.14-.32.32-.32.32.15.32.32Z"/>
        <path class="cls-1" d="m98.59,32.76c0,.18-.14.32-.32.32s-.32-.14-.32-.32.14-.32.32-.32.32.14.32.32Z"/>
        <path class="cls-1" d="m113.85,41.14c0,.29-.24.53-.53.53s-.53-.24-.53-.53.24-.53.53-.53.53.24.53.53Z"/>
        <path class="cls-1" d="m101.74,28.75c0,.15-.12.28-.28.28s-.28-.13-.28-.28.12-.28.28-.28.28.12.28.28Z"/>
        <path class="cls-1" d="m101.85,28.75c0,.22-.18.39-.39.39s-.39-.18-.39-.39.18-.39.39-.39.39.18.39.39Z"/>
        <path class="cls-1" d="m98.52,32.76c0,.14-.11.25-.25.25s-.25-.11-.25-.25.11-.25.25-.25.25.11.25.25Z"/>
        <path class="cls-1" d="m113.56,41.14c0,.13-.11.24-.24.24s-.24-.11-.24-.24.11-.24.24-.24.24.11.24.24Z"/>
        <path class="cls-1" d="m109.79,54.81c0,.14-.11.25-.24.25s-.25-.11-.25-.25.11-.25.25-.25.24.11.24.25Z"/>
        <path class="cls-1" d="m113.64,41.14c0,.18-.14.32-.32.32s-.32-.14-.32-.32.14-.32.32-.32.32.14.32.32Z"/>
        <path class="cls-1" d="m109.83,54.81c0,.16-.13.28-.28.28s-.28-.13-.28-.28.13-.28.28-.28.28.13.28.28Z"/>
        <path class="cls-1" d="m109.91,54.81c0,.2-.16.36-.36.36s-.36-.16-.36-.36.16-.36.36-.36.36.16.36.36Z"/>
        <path class="cls-1" d="m65.86,8.09c0,.3-.25.55-.55.55s-.55-.25-.55-.55.25-.55.55-.55.55.25.55.55Z"/>
        <path class="cls-1" d="m55.65,10.53c0,.12-.1.22-.22.22s-.22-.1-.22-.22.1-.22.22-.22.22.1.22.22Z"/>
        <path class="cls-1" d="m52.25,2.63c0,.14-.11.25-.25.25s-.25-.11-.25-.25.11-.26.25-.26.25.11.25.26Z"/>
        <path class="cls-1" d="m65.63,8.09c0,.18-.15.32-.32.32s-.32-.15-.32-.32.15-.32.32-.32.32.14.32.32Z"/>
        <path class="cls-1" d="m77.61,11.26c0,.19-.15.34-.34.34s-.34-.15-.34-.34.15-.34.34-.34.34.15.34.34Z"/>
        <path class="cls-1" d="m77.61,11.26c0,.19-.16.35-.35.35s-.35-.16-.35-.35.16-.35.35-.35.35.16.35.35Z"/>
        <path class="cls-1" d="m69.36,20.84c0,.13-.11.24-.24.24s-.24-.11-.24-.24.11-.24.24-.24.24.11.24.24Z"/>
        <path class="cls-1" d="m87.1,22.2c0,.18-.15.33-.33.33s-.33-.15-.33-.33.15-.33.33-.33.33.15.33.33Z"/>
        <path class="cls-1" d="m104.11,40.01c0,.34-.27.61-.61.61s-.61-.27-.61-.61.27-.61.61-.61.61.27.61.61Z"/>
        <path class="cls-1" d="m103.84,40.01c0,.19-.15.34-.34.34s-.34-.15-.34-.34.15-.34.34-.34.34.15.34.34Z"/>
        <path class="cls-1" d="m94.48,48.02c0,.19-.16.35-.35.35s-.35-.16-.35-.35.16-.35.35-.35.35.16.35.35Z"/>
        <path class="cls-1" d="m98.44,32.76c0,.09-.07.16-.16.16s-.16-.07-.16-.16.07-.16.16-.16.16.07.16.16Z"/>
        <path class="cls-1" d="m109.86,54.81c0,.17-.14.32-.31.32s-.31-.14-.31-.32.14-.31.31-.31.31.14.31.31Z"/>
      </g>
    </g>
  </g>
</svg>